<svg width="84" height="28" viewBox="0 0 84 28" fill="none" xmlns="http://www.w3.org/2000/svg">
<path d="M16.1235 20.2927C9.26819 23.8988 0.605075 19.4813 0.0252562 11.4255C-0.329883 6.47813 3.0983 1.70948 7.91183 0.430562C11.5947 -0.548103 14.9359 0.12408 17.864 2.62684C17.9396 2.69126 18.0131 2.75775 18.0856 2.82632C18.1156 2.85541 18.1384 2.89177 18.2077 2.98008C17.5016 3.62109 16.7913 4.26626 16.0593 4.93117C15.3035 4.24029 14.3333 3.64083 13.2161 3.29591C8.22555 1.75519 3.18734 5.45999 3.20598 10.692C3.21737 13.9823 4.6928 16.4362 7.65401 17.8793C10.3605 19.1977 14.206 18.8236 16.4393 16.3209C17.3359 15.3152 17.7201 14.1101 17.9158 12.7563C15.5603 12.7563 13.2544 12.7563 10.9186 12.7563C10.9186 11.7642 10.9186 10.8187 10.9186 9.84112C11.0263 9.83281 11.134 9.81722 11.2416 9.81722C14.294 9.81619 17.3453 9.82034 20.3976 9.80995C20.6772 9.80891 20.8055 9.87852 20.8356 10.1705C21.1182 12.9194 20.7289 15.5105 19.0278 17.7785C18.2512 18.8133 17.2738 19.634 16.1235 20.2927Z" fill="#376FB4"/>
<path d="M63.2354 25.83C59.9419 29.1022 53.6644 27.8253 52.405 23.6128C53.2425 23.2629 54.0842 22.9099 54.9568 22.5444C55.1064 22.7963 55.2395 23.0409 55.3911 23.2722C56.6412 25.1777 59.3406 25.5988 60.9754 24.099C61.355 23.7511 61.6438 23.2546 61.845 22.7726C62.2153 21.8838 62.173 20.928 62.1327 19.9845C62.075 19.9783 62.0358 19.9639 62.0255 19.9752C60.5133 21.6567 57.9471 21.9447 55.7242 20.8774C53.0909 19.6129 51.5427 16.8094 51.8562 13.882C52.1667 10.9762 54.273 8.53397 57.0868 7.89192C58.8919 7.48006 60.5412 7.80418 61.913 9.13679C61.9595 9.18118 62.0193 9.21214 62.142 9.29679C62.142 8.88802 62.142 8.54429 62.142 8.18198C63.1116 8.18198 64.0265 8.18198 64.9631 8.18198C64.9786 8.24082 65.0116 8.30585 65.0116 8.36984C65.0033 12.697 65.0301 17.0241 64.9641 21.3491C64.9373 23.0048 64.4174 24.548 63.2354 25.83ZM61.2374 11.5718C59.9275 10.2382 58.0172 10.0575 56.536 11.128C54.4463 12.6371 54.2338 16.0063 56.1162 17.7807C57.8522 19.4168 60.5494 19.0318 61.7542 16.9745C62.7166 15.3312 62.5195 13.1037 61.2374 11.5718Z" fill="#366FB4"/>
<path d="M38.69 19.5443C36.8103 17.5028 36.2471 15.1396 37.0354 12.5304C37.8134 9.95318 39.6263 8.37397 42.2357 7.86515C45.9807 7.13501 49.4328 9.31198 50.3187 12.9513C51.2786 16.8947 48.8603 20.7129 44.8861 21.4348C42.5429 21.8619 40.4587 21.2269 38.69 19.5443ZM40.3025 16.8481C41.7465 19.1895 44.6683 19.5008 46.4575 17.5028C47.5983 16.2297 47.809 14.1013 46.9519 12.4921C45.735 10.2045 42.7002 9.76909 40.9006 11.6224C39.6396 12.9234 39.3786 15.0869 40.3025 16.8481Z" fill="#F4B020"/>
<path d="M22.6978 17.9385C20.5476 13.6783 22.8483 8.80849 27.426 7.86889C30.6101 7.2149 33.7869 8.83022 35.1187 11.7804C36.4381 14.7017 35.5434 18.2407 32.9943 20.1851C29.6803 22.7121 24.7583 21.6504 22.6978 17.9385ZM26.8621 10.9847C25.3273 11.9936 24.78 13.4527 24.9552 15.2315C25.1418 17.1231 26.6508 18.6774 28.4135 18.8078C30.3895 18.9537 32.0686 17.774 32.5335 15.8306C32.953 14.0746 32.6118 12.4789 31.1626 11.3024C29.8566 10.2417 28.4042 10.1889 26.8621 10.9847Z" fill="#E33626"/>
<path d="M78.573 15.0103C77.3179 15.524 76.0925 16.0256 74.8691 16.5262C75.8012 18.9685 79.7432 19.5024 81.5205 16.7406C82.284 17.2422 83.0474 17.7438 83.8354 18.2616C82.3453 20.269 80.3963 21.3247 77.8943 21.2368C73.9983 21.1002 71.2072 17.9683 71.4647 14.0536C71.6231 11.6468 72.6155 9.69194 74.8078 8.49964C77.7737 6.88664 81.2446 7.86152 83.0025 10.772C83.3796 11.397 83.6545 12.0816 84 12.7885C82.1603 13.5419 80.3809 14.27 78.573 15.0103ZM78.9889 12.3961C79.4621 12.1959 79.9353 11.9967 80.4065 11.7974C80.0202 10.687 78.434 10.0752 77.0491 10.4757C75.0878 11.042 74.1547 12.9695 74.4 14.2751C75.9136 13.6531 77.4211 13.0332 78.9889 12.3961Z" fill="#E33626"/>
<path d="M70.1193 0.673865C70.1524 3.25618 70.159 5.80744 70.1601 8.35871C70.1623 12.3983 70.1601 16.4379 70.159 20.4785C70.159 20.6172 70.159 20.7569 70.159 20.9194C69.0714 20.9194 68.0203 20.9194 66.9426 20.9194C66.9426 14.1743 66.9426 7.43446 66.9426 0.64385C67.9916 0.642815 69.0416 0.642815 70.1193 0.673865Z" fill="#289B46"/>
</svg>
