<svg width="516" height="55" viewBox="0 0 516 55" fill="none" xmlns="http://www.w3.org/2000/svg">
<g clip-path="url(#clip0_5417_14545)">
<path fill-rule="evenodd" clip-rule="evenodd" d="M8.02637 43.5502H125.715V11.4482H8.02637V43.5502Z" fill="black" stroke="black" stroke-width="0.36928" stroke-miterlimit="2.613"/>
<path fill-rule="evenodd" clip-rule="evenodd" d="M10.6753 40.8918H123.067V14.1084H10.6753V40.8918Z" fill="#F8E146" stroke="#F8E146" stroke-width="0.36928" stroke-miterlimit="2.613"/>
<path d="M18.3469 25.528C17.4336 24.7485 15.2869 22.6844 15.3328 20.6667C15.3328 20.0247 16.0629 18.7865 17.8902 18.8323C19.7169 18.8781 21.4527 19.9789 23.8269 22.5469C26.2019 25.1157 32.5043 32.4999 33.3711 33.5084C34.5135 34.7924 35.0611 36.0299 39.9935 36.0299H115.943M115.302 29.3807C116.216 30.1144 118.362 32.1778 118.316 34.1955C118.316 34.884 117.585 36.1222 115.759 36.0306C113.932 35.9855 112.196 34.9305 109.822 32.3159C107.446 29.7486 101.144 22.3644 100.276 21.401C99.1354 20.0712 98.5878 18.833 93.6998 18.833H17.7528M18.1644 25.3905C16.2926 23.7859 15.516 22.1347 16.2926 21.2171C16.9318 20.5751 19.5351 20.8957 21.5901 22.8683C23.6451 24.7943 23.8734 26.5822 23.4175 27.0875C23.0059 27.5928 20.4942 27.225 19.0326 26.0784C18.621 25.8035 18.1644 25.3905 18.1644 25.3905ZM115.531 29.4716C117.358 31.1235 118.134 32.7282 117.403 33.6465C116.718 34.2878 114.114 33.9671 112.059 32.0404C110.004 30.1151 109.823 28.2799 110.233 27.7761C110.644 27.318 113.156 27.6386 114.617 28.8303C115.029 29.0601 115.531 29.4716 115.531 29.4716Z" stroke="black" stroke-width="0.465124" stroke-miterlimit="2.613"/>
<path d="M17.1143 20.9414H22.0467M23.0502 27.2699H28.0285M105.666 27.592H110.826M111.649 33.9663H116.626" stroke="black" stroke-width="0.498246" stroke-miterlimit="2.613"/>
<path d="M16.1096 22.7307H21.3613M17.1146 24.3353H22.7778M18.9405 25.9407H26.7955M23.6446 26.4911H27.2529M23.0505 24.6102H25.5171M21.6354 22.8681H23.9188M20.6305 21.997H23.1422M15.333 20.8504H16.932M15.4246 20.2535H21.2246M15.7897 19.5664H20.3563M21.133 19.9794H98.7699M99.9123 21.2627H22.5037M23.5079 22.0886H34.2403M24.2387 23.0055H34.2403M24.9688 23.8766H34.2403M25.8836 24.7941H34.241M26.5221 25.6652H34.241M27.4812 26.675H34.241M28.4403 27.6377H34.2403M29.8103 29.3347H34.241M31.0429 30.6645H34.2403M32.0937 31.9486H34.2403M32.9612 32.9577H34.2403M33.9203 34.012H111.604M34.9711 34.9754H112.745M115.576 29.6103H110.416M116.946 31.031H111.192M98.9989 22.7765H101.419M102.425 23.9689H98.9989M103.84 25.5277H98.9989M104.754 26.5362H98.9989M105.346 27.2705H98.9982M110.05 28.7392H106.808M110.188 29.4256H107.219M110.552 29.9767H107.767M106.9 29.1508H98.9989M107.95 30.2065H98.9989M108.497 30.8478H98.9982M98.9989 31.7188H109.274M109.776 32.4074H98.9989M110.645 33.1861H98.9989M110.919 33.3242H113.979M110.324 32.728H112.883M109.823 32.1776H112.105M109.228 31.5814H111.604M112.607 34.838H118.088" stroke="black" stroke-width="0.332634" stroke-miterlimit="2.613"/>
<path fill-rule="evenodd" clip-rule="evenodd" d="M42.5977 29.9761V22.2705H40.4968V29.6096C40.4968 30.4792 39.5377 30.8471 38.9443 30.8471C38.5786 30.8471 37.2544 30.2509 36.8893 29.9761L36.0669 31.5807C36.0669 31.5807 37.4827 32.8648 39.1719 32.8648C40.8161 32.8648 41.5927 32.0388 41.8661 31.7182C42.1868 31.3975 42.5977 30.5716 42.5977 29.9761ZM44.6978 32.8648C45.3835 32.8648 45.8859 32.3609 45.8859 31.6731C45.8859 31.0303 45.3835 30.4799 44.6978 30.4799C44.0586 30.4799 43.511 31.0303 43.511 31.6731C43.5096 31.8295 43.5393 31.9847 43.5984 32.1296C43.6575 32.2745 43.7447 32.4062 43.8552 32.5171C43.9656 32.628 44.0969 32.7158 44.2416 32.7755C44.3862 32.8352 44.5413 32.8655 44.6978 32.8648ZM57.8051 32.8648C58.4901 32.8648 59.0384 32.3609 59.0384 31.6731C59.0384 31.0303 58.4901 30.4799 57.8051 30.4799C57.1659 30.4799 56.6176 31.0303 56.6176 31.6731C56.6176 32.3609 57.1659 32.8648 57.8051 32.8648ZM50.7719 32.8197H48.6259V22.2705H52.7359C54.7909 22.2705 55.6134 24.0598 55.6134 24.7935C55.6134 25.5271 55.7501 26.6279 54.3801 27.4073C55.7043 28.05 55.9791 29.012 55.9791 29.8837C55.9791 30.7555 55.2934 32.8197 52.645 32.8197H50.7719ZM52.4167 30.9394C53.0559 30.9394 53.6042 30.4341 53.6042 29.7928C53.6042 29.1501 53.0559 28.6011 52.4167 28.6011H50.7726V30.9394H52.4167ZM52.2342 26.6744C52.8276 26.6744 53.33 26.2156 53.33 25.5736C53.33 24.9774 52.8283 24.4728 52.2342 24.4728H50.7726V26.6744H52.2342ZM68.2175 22.2705V26.7195H65.1583V22.2705H63.0117V32.8197H65.1583V28.5539H68.2175V32.8197H70.3176V22.2705H68.2175ZM76.3015 30.8471C77.0781 30.8471 77.6708 30.2058 77.6708 29.425V22.2705H79.6807V28.6004C79.6807 30.2509 79.8639 31.0296 79.0873 31.8556C78.3565 32.6815 77.2607 33.0945 76.3015 33.0945C75.3424 33.0945 74.2465 32.6815 73.4699 31.8556C72.6933 31.0296 72.8765 30.2509 72.8765 28.6004V22.2705H74.885V29.425C74.885 30.2058 75.5249 30.8471 76.3015 30.8471ZM96.8071 22.2705H90.2306V24.2438H92.4223V32.8197H94.6147V24.2438H96.8071V22.2705ZM86.7591 32.7739L83.9281 26.995V32.8197H81.9182V22.2705H83.9281L86.6681 27.3622V22.2705H88.678V32.8197H86.7591V32.7739Z" fill="black"/>
<path fill-rule="evenodd" clip-rule="evenodd" d="M130.465 44.0559C130.91 44.0559 131.351 43.968 131.762 43.7973C132.173 43.6266 132.546 43.3763 132.86 43.061C133.174 42.7456 133.422 42.3713 133.591 41.9596C133.76 41.5479 133.846 41.1069 133.844 40.6619C133.844 38.8268 132.337 37.3145 130.465 37.3145C128.592 37.3145 127.085 38.8268 127.085 40.6619C127.083 41.107 127.169 41.5481 127.338 41.9599C127.507 42.3716 127.756 42.7459 128.07 43.0613C128.384 43.3766 128.757 43.6268 129.168 43.7975C129.579 43.9682 130.02 44.056 130.465 44.0559ZM130.465 43.23C129.003 43.23 127.999 42.1757 127.999 40.6612C127.999 39.1489 129.003 38.0939 130.465 38.0939C131.925 38.0939 132.93 39.1482 132.93 40.6612C132.93 42.1757 131.925 43.23 130.465 43.23ZM131.242 40.9826C131.88 40.9375 132.247 40.6619 132.247 39.9734C132.247 39.1024 131.79 38.8733 130.83 38.8733H129.094V42.4964H129.871V40.9826H130.466L131.242 42.4964H132.155L131.242 40.9826ZM129.87 40.4329V39.4237H130.692C131.013 39.4237 131.56 39.3786 131.56 39.8818C131.56 40.3399 131.241 40.4322 130.829 40.4322H129.87V40.4329Z" fill="#0C0E0F"/>
</g>
<g clip-path="url(#clip1_5417_14545)">
<path d="M306.534 23.463C307.464 23.463 308.23 22.9812 308.333 22.3587L309.252 12.0117C309.252 10.989 308.049 10.1494 306.537 10.1494C305.027 10.1494 303.825 10.989 303.825 12.0119L304.743 22.3587C304.844 22.981 305.61 23.463 306.537 23.463H306.534ZM300.921 26.6949C301.388 25.8933 301.353 24.9924 300.861 24.5922L292.325 18.6264C291.438 18.1143 290.107 18.7307 289.352 20.0357C288.594 21.339 288.728 22.7946 289.613 23.3068L299.065 27.6915C299.656 27.9097 300.462 27.4898 300.924 26.6888L300.921 26.6949ZM312.152 26.6893C312.618 27.4903 313.419 27.9105 314.011 27.6921L323.463 23.3074C324.353 22.7953 324.48 21.3395 323.729 20.0362C322.97 18.7325 321.637 18.1149 320.752 18.627L312.215 24.5928C311.727 24.9924 311.691 25.894 312.155 26.6954L312.152 26.6893ZM306.534 36.388C307.464 36.388 308.23 36.8658 308.333 37.4888L309.252 47.8343C309.252 48.8602 308.049 49.6979 306.537 49.6979C305.027 49.6979 303.825 48.8602 303.825 47.8343L304.743 37.4888C304.844 36.8658 305.61 36.388 306.537 36.388H306.534ZM312.152 33.1554C312.618 32.3522 313.419 31.9357 314.011 32.1565L323.463 36.5383C324.353 37.0509 324.48 38.508 323.729 39.8124C322.97 41.1118 321.637 41.7312 320.752 41.2198L312.215 35.2595C311.727 34.8567 311.691 33.9546 312.155 33.1537H312.151M300.921 33.1543C301.388 33.9546 301.353 34.8567 300.861 35.2603L292.325 41.2204C291.438 41.7317 290.107 41.1124 289.352 39.8129C288.594 38.5085 288.728 37.0515 289.613 36.5388L299.065 32.1571C299.656 31.9363 300.462 32.3528 300.924 33.1561H300.921" fill="#FDBB30"/>
<path d="M252.691 35.2411C252.691 35.5586 252.663 35.8861 252.576 36.1737C252.214 37.3682 250.972 38.3784 249.419 38.3784C248.124 38.3784 247.096 37.6455 247.096 36.0976C247.096 33.7286 249.713 33.0744 252.692 33.0908L252.691 35.2409V35.2411ZM257.364 31.1126C257.364 27.2062 255.689 23.7689 250.028 23.7689C247.122 23.7689 244.816 24.5821 243.557 25.3068L244.479 28.4473C245.629 27.7236 247.463 27.1246 249.198 27.1246C252.07 27.1167 252.54 28.7447 252.54 29.7866V30.0332C246.281 30.024 242.324 32.1833 242.324 36.582C242.324 39.2698 244.339 41.7873 247.842 41.7873C249.995 41.7873 251.798 40.9313 252.876 39.5587H252.983C252.983 39.5587 253.697 42.5386 257.638 41.3985C257.432 40.1593 257.365 38.8364 257.365 37.2457L257.364 31.1126M159.841 18.449C159.841 18.449 163.931 35.1471 164.585 37.8571C165.346 41.0202 166.72 42.1847 170.677 41.3985L173.23 31.0463C173.878 28.4737 174.311 26.6395 174.729 24.0251H174.801C175.094 26.6671 175.51 28.4816 176.043 31.0548C176.043 31.0548 177.082 35.7548 177.615 38.2226C178.148 40.6896 179.634 42.2455 183.51 41.3985L189.596 18.4482H184.684L182.605 28.3712C182.046 31.2584 181.54 33.517 181.149 36.1578H181.079C180.724 33.5403 180.272 31.3738 179.704 28.5601L177.542 18.4482H172.424L170.109 28.3051C169.454 31.3012 168.84 33.7195 168.451 36.2724H168.38C167.981 33.8685 167.449 30.8279 166.874 27.9291C166.874 27.9291 165.5 20.8785 165.016 18.4482L159.841 18.449ZM198.887 35.2411C198.887 35.5586 198.859 35.8861 198.77 36.1737C198.409 37.3682 197.167 38.3784 195.614 38.3784C194.318 38.3784 193.291 37.6455 193.291 36.0976C193.291 33.7286 195.908 33.0744 198.888 33.0908L198.887 35.2409V35.2411ZM203.559 31.1126C203.559 27.2062 201.884 23.7689 196.224 23.7689C193.318 23.7689 191.01 24.5821 189.752 25.3068L190.672 28.4473C191.823 27.7236 193.656 27.1246 195.392 27.1246C198.265 27.1167 198.736 28.7447 198.736 29.7866V30.0332C192.474 30.024 188.519 32.1833 188.519 36.582C188.519 39.2698 190.533 41.7873 194.034 41.7873C196.189 41.7873 197.991 40.9313 199.071 39.5587H199.176C199.176 39.5587 199.892 42.5386 203.832 41.3985C203.626 40.1593 203.559 38.8364 203.559 37.2457V31.1126ZM211.357 36.5268V18.449H206.679V41.3992H211.357V36.5268ZM272.559 18.449V35.3789C272.559 37.7142 273.001 39.3485 273.943 40.3487C274.769 41.2231 276.126 41.7891 277.752 41.7891C279.136 41.7891 280.496 41.5261 281.138 41.2888L281.078 37.6474C280.6 37.7637 280.052 37.8578 279.301 37.8578C277.707 37.8578 277.174 36.8403 277.174 34.7448V28.2671H281.248V23.8754H277.174V18.449H272.559ZM260.484 24.1582V41.3992H265.31V32.5715C265.31 32.0943 265.339 31.6786 265.414 31.2983C265.772 29.4482 267.191 28.2671 269.229 28.2671C269.788 28.2671 270.188 28.3277 270.622 28.3889V23.8754C270.258 23.8032 270.011 23.7694 269.559 23.7694C267.758 23.7694 265.709 24.9273 264.849 27.4109H264.718V24.1582H260.484ZM214.633 24.1582V41.3992H219.335V31.2891C219.335 30.8146 219.391 30.3129 219.556 29.878C219.945 28.8601 220.896 27.6679 222.414 27.6679C224.312 27.6679 225.198 29.266 225.198 31.5724V41.3979H229.896V31.1646C229.896 30.712 229.959 30.1663 230.093 29.7672C230.479 28.6086 231.503 27.6666 232.914 27.6666C234.837 27.6666 235.76 29.2366 235.76 31.9514V41.3974H240.462V31.2424C240.462 25.8876 237.732 23.7678 234.651 23.7678C233.288 23.7678 232.211 24.108 231.236 24.7028C230.418 25.2049 229.685 25.9164 229.045 26.8516H228.975C228.232 24.9935 226.484 23.7687 224.206 23.7687C221.279 23.7687 219.964 25.2468 219.166 26.5003H219.096V24.1577H214.633" fill="#1A75CF"/>
<path d="M325.834 40.5606H325.905C325.999 40.5606 326.059 40.5218 326.059 40.4642C326.059 40.3987 326.003 40.3631 325.915 40.3631C325.885 40.3631 325.854 40.3691 325.834 40.3691V40.5622V40.5604L325.834 40.5606ZM325.823 41.0254H325.573V40.2141C325.63 40.203 325.762 40.1832 325.931 40.1832C326.115 40.1832 326.198 40.2091 326.258 40.2497C326.309 40.2851 326.346 40.3457 326.346 40.4275C326.346 40.5107 326.269 40.5813 326.156 40.6121V40.6224C326.248 40.647 326.299 40.7138 326.325 40.831C326.35 40.9481 326.366 40.9959 326.382 41.026H326.099C326.074 40.9959 326.059 40.9241 326.043 40.8524C326.027 40.7703 325.988 40.7291 325.904 40.7291H325.822L325.823 41.0254ZM325.926 39.9497C325.567 39.9497 325.297 40.241 325.297 40.6125C325.297 40.9743 325.568 41.2695 325.936 41.2695C326.305 41.2755 326.577 40.9745 326.577 40.6065C326.577 40.2403 326.305 39.9497 325.932 39.9497H325.926ZM325.942 39.7295C326.443 39.7295 326.841 40.122 326.841 40.6064C326.841 41.0965 326.443 41.4895 325.935 41.4895C325.428 41.4895 325.024 41.0959 325.024 40.6065C325.024 40.122 325.429 39.7297 325.935 39.7297H325.941" fill="#FDBB30"/>
</g>
<path d="M424.524 23.3411H431.45L434.701 26.9424L437.831 23.3411H444.515L437.982 30.7246L444.605 38.1683H437.651L434.429 34.5375L431.238 38.1683H424.524L431.088 30.7552L424.524 23.3411ZM417.09 23.3411H424.524V28.3503H417.09V32.948H424.524V38.1683H411.626V14.8115H424.524V20.0174H417.09V23.3411Z" fill="#FF6600"/>
<path d="M406.186 14.8115V24.3703H406.126C404.921 22.9786 403.416 22.495 401.67 22.495C398.093 22.495 395.398 24.9392 394.453 28.1707C393.374 24.61 390.592 22.4282 386.467 22.4282C383.118 22.4282 380.472 23.9396 379.092 26.4024V23.3415H372.168V20.0181H379.724V14.8115H365.996V38.1687H372.168V28.3502H378.32C378.13 29.1048 378.036 29.8803 378.039 30.6586C378.039 35.5308 381.742 38.9495 386.467 38.9495C390.441 38.9495 393.06 37.0742 394.445 33.6552H389.156C388.44 34.6823 387.898 34.9874 386.467 34.9874C384.809 34.9874 383.379 33.5327 383.379 31.8085H394.149C394.616 35.6784 397.615 39.0159 401.731 39.0159C403.506 39.0159 405.132 38.1381 406.126 36.6559H406.186V38.168H411.626V14.8115H406.186ZM383.55 28.4201C383.894 26.9366 385.038 25.9669 386.467 25.9669C388.04 25.9669 389.127 26.9066 389.413 28.4201H383.55ZM402.884 34.6121C400.878 34.6121 399.632 32.7337 399.632 30.7724C399.632 28.676 400.716 26.66 402.884 26.66C405.132 26.66 406.027 28.676 406.027 30.7724C406.027 32.7605 405.078 34.6121 402.884 34.6121ZM414.622 49.3592C415.463 49.3592 416.371 48.8621 416.544 47.9723H417.371C417.073 49.2553 415.968 49.9831 414.6 49.9831C412.07 49.9831 411.046 48.0184 411.046 45.6612C411.046 43.3037 412.07 41.3383 414.6 41.3383C415.968 41.3383 417.073 42.0658 417.371 43.3498H416.544C416.371 42.4589 415.463 41.9636 414.622 41.9636C412.541 41.9636 411.84 43.8702 411.84 45.6619C411.84 47.4519 412.541 49.3592 414.622 49.3592ZM420.821 49.9831C419.049 49.9831 418.096 48.6079 418.096 46.9205C418.096 45.2333 419.049 43.8578 420.821 43.8578C422.592 43.8578 423.547 45.2333 423.547 46.9205C423.547 48.6079 422.592 49.9831 420.821 49.9831ZM420.821 49.4513C422.213 49.4513 422.799 48.1807 422.799 46.9205C422.799 45.6612 422.213 44.3892 420.821 44.3892C419.43 44.3892 418.843 45.6612 418.843 46.9205C418.843 48.1804 419.429 49.4513 420.821 49.4513ZM427.202 44.5389C426.041 44.5389 425.639 45.5223 425.639 46.5383V49.8455H424.937V45.7187C424.937 45.1532 424.926 44.5736 424.903 43.9961H425.592L425.639 44.8391C425.985 44.1698 426.558 43.8571 427.329 43.8571C427.432 43.8571 427.548 43.8688 427.652 43.8798V44.5856C427.489 44.5633 427.364 44.5389 427.202 44.5389ZM429.142 52.0407H428.44V45.7414C428.44 45.1635 428.44 44.5736 428.405 43.9968H429.095L429.118 44.8759C429.555 44.1808 430.13 43.8578 430.993 43.8578C432.786 43.8578 433.557 45.3496 433.557 46.9205C433.557 48.4931 432.786 49.9831 430.993 49.9831C430.188 49.9831 429.556 49.6729 429.142 49.0014V52.0407ZM432.81 46.9201C432.81 45.6726 432.292 44.4467 430.912 44.4467C429.613 44.4467 429.142 45.5226 429.142 46.9201C429.142 48.3194 429.613 49.3932 430.912 49.3932C432.292 49.3936 432.81 48.1694 432.81 46.9201ZM437.169 49.9831C435.397 49.9831 434.443 48.6079 434.443 46.9205C434.443 45.2333 435.397 43.8578 437.169 43.8578C438.939 43.8578 439.894 45.2333 439.894 46.9205C439.894 48.6079 438.938 49.9831 437.169 49.9831ZM437.169 49.4513C438.56 49.4513 439.146 48.1807 439.146 46.9205C439.146 45.6612 438.56 44.3892 437.169 44.3892C435.776 44.3892 435.19 45.6612 435.19 46.9205C435.19 48.1804 435.776 49.4513 437.169 49.4513ZM443.551 44.5389C442.389 44.5389 441.987 45.5223 441.987 46.5383V49.8455H441.286V45.7187C441.286 45.1532 441.274 44.5736 441.25 43.9961H441.941L441.987 44.8391C442.332 44.1698 442.907 43.8571 443.677 43.8571C443.782 43.8571 443.896 43.8688 443.999 43.8798V44.5856C443.839 44.5633 443.711 44.5389 443.551 44.5389ZM448.131 49.8455C448.087 49.5851 448.056 49.3225 448.04 49.0589C447.591 49.7399 447.005 49.9831 446.095 49.9831C445.037 49.9831 444.071 49.4407 444.071 48.2616C444.071 46.5624 445.854 46.3082 447.28 46.3082C447.556 46.3082 447.786 46.3196 447.958 46.3302V45.891C447.958 44.8983 447.555 44.3885 446.531 44.3885C445.785 44.3885 445.256 44.6778 445.164 45.5095H444.462C444.473 44.2506 445.566 43.8571 446.531 43.8571C447.97 43.8571 448.66 44.2506 448.66 45.6949V47.6827C448.66 48.5852 448.694 49.1167 448.799 49.8455H448.131ZM447.959 46.8623C447.763 46.8513 447.603 46.8407 447.407 46.8407C446.441 46.8407 444.82 46.8974 444.82 48.2382C444.82 49.0475 445.486 49.4507 446.224 49.4507C447.397 49.4507 447.959 48.7583 447.959 47.4065V46.8623ZM451.696 49.9831C450.857 49.9831 450.466 49.4871 450.466 48.643V44.5282H449.522V43.9964H450.466V42.8056L451.167 42.494V43.9964H452.456V44.5282H451.167V48.3317C451.167 49.1517 451.304 49.3939 451.891 49.3939C452.111 49.3939 452.385 49.3141 452.512 49.2436V49.8459C452.271 49.9143 452.064 49.9831 451.696 49.9831ZM453.384 42.366V41.4872H454.223V42.366H453.384ZM453.452 49.8455V43.9964H454.154V49.8459L453.452 49.8455ZM458.272 49.9831C456.5 49.9831 455.546 48.6079 455.546 46.9205C455.546 45.2333 456.5 43.8578 458.272 43.8578C460.043 43.8578 460.997 45.2333 460.997 46.9205C460.997 48.6079 460.043 49.9831 458.272 49.9831ZM458.272 49.4513C459.663 49.4513 460.249 48.1807 460.249 46.9205C460.249 45.6612 459.663 44.3892 458.272 44.3892C456.881 44.3892 456.294 45.6612 456.294 46.9205C456.293 48.1804 456.88 49.4513 458.272 49.4513ZM463.042 43.9964L463.065 44.8756C463.468 44.1925 464.099 43.8575 464.951 43.8575C466.504 43.8575 467.021 44.7122 467.021 46.1809V49.8459H466.319V46.4575C466.319 45.3716 466.067 44.446 464.836 44.446C463.526 44.446 463.089 45.6141 463.089 46.7695V49.8452H462.387V45.7414C462.387 45.1635 462.376 44.5736 462.353 43.9968L463.042 43.9964Z" fill="#652C8F"/>
<defs>
<clipPath id="clip0_5417_14545">
<rect width="135.842" height="36.3512" fill="white" transform="translate(0 9.14844)"/>
</clipPath>
<clipPath id="clip1_5417_14545">
<rect width="167" height="33.0693" fill="white" transform="translate(159.841 10.79)"/>
</clipPath>
</defs>
</svg>
