<svg width="122" height="25" viewBox="0 0 122 25" fill="none" xmlns="http://www.w3.org/2000/svg">
<path d="M63.2422 1.64516H76.85V5.41875H68.2965V7.59142H75.615V11.2049H68.2965V13.6063H77.0101V17.3799H63.2422V1.64516Z" fill="#FBB723"/>
<path d="M78.0898 1.64516H83.1442V13.3547H91.2174V17.3799H78.0898V1.64516Z" fill="#FBB723"/>
<path d="M98.4911 1.64516C103.98 1.64516 106.747 4.27523 106.747 9.51252C106.747 14.7727 104.003 17.3799 98.4911 17.3799H91.6758V1.64516H98.4911ZM96.7301 13.6063H98.3996C100.527 13.6063 101.579 12.4628 101.579 10.1986V8.82641C101.579 6.53939 100.527 5.41875 98.3996 5.41875H96.7301V13.6063Z" fill="#FBB723"/>
<path d="M116.852 5.67032V17.3799H111.798V5.67032H106.629V1.64516H121.998V5.67032H116.852Z" fill="#FBB723"/>
<path d="M14.8458 11.3538C14.8458 13.391 14.1956 14.9515 12.9169 16.0134C11.3349 17.1766 9.39324 17.7445 7.43374 17.6172C5.46797 17.7403 3.52092 17.1731 1.92887 16.0134C0.628509 14.9298 0 13.391 0 11.3538V2.44632H4.78967V11.2888C4.78967 12.134 5.0064 12.8059 5.46152 13.3043C5.89498 13.8028 6.54516 14.0412 7.41207 14.0412C8.27897 14.0412 8.92916 13.7811 9.36261 13.2827C9.84147 12.7319 10.0898 12.0179 10.0561 11.2888V2.44632H14.8458V11.3538Z" fill="#2D2727"/>
<path d="M23.4514 5.65514C24.7734 5.65514 25.7703 6.02357 26.4422 6.76044C27.0924 7.49732 27.4391 8.55928 27.4391 9.94633V17.3584H23.1263V10.4665C23.1263 9.96801 22.9962 9.59957 22.7362 9.29615C22.4978 8.99273 22.1293 8.84102 21.6742 8.84102C21.4332 8.83252 21.1931 8.87439 20.9692 8.96396C20.7453 9.05352 20.5425 9.1888 20.3738 9.36117C20.2101 9.53062 20.0818 9.73094 19.9962 9.95046C19.9106 10.17 19.8695 10.4043 19.8754 10.6399V17.3584H15.5625V5.91521H19.0952L19.3769 7.64903C19.8614 7.03055 20.4796 6.52985 21.1853 6.18452C21.891 5.83919 22.6657 5.6582 23.4514 5.65514Z" fill="#2D2727"/>
<path d="M27.9805 4.5715V1.64569H32.2933V4.5715H27.9805ZM27.9805 17.3584V5.91521H32.2933V17.3584H27.9805Z" fill="#2D2727"/>
<path d="M40.4885 5.9139V8.83971H38.0612V13.1959C38.0612 13.7161 38.1479 14.1062 38.3213 14.3446C38.4946 14.5613 38.8197 14.6913 39.2749 14.6913H40.4885V17.227C39.6065 17.7315 38.5978 17.9712 37.5831 17.9174C36.5684 17.8636 35.5907 17.5186 34.7669 16.9236C34.0951 16.4685 33.7483 15.6666 33.7483 14.5613V8.83971H32.1445V5.9139H33.9217L34.8536 2.44626H38.0612V5.9139H40.4885Z" fill="#2D2727"/>
<path d="M46.2063 5.65449C48.3086 5.65449 49.8907 6.15296 50.996 7.12823C52.1013 8.1035 52.6648 9.62059 52.6648 11.6362V12.373H44.0824C44.0824 13.1966 44.2558 13.8251 44.6242 14.2369C44.9927 14.6703 45.5778 14.8654 46.3797 14.8654C47.0949 14.8654 47.6367 14.7137 47.9618 14.4103C48.1344 14.2602 48.2708 14.0732 48.3609 13.863C48.4509 13.6528 48.4923 13.425 48.482 13.1966H52.6648C52.6905 13.827 52.5595 14.454 52.2834 15.0214C52.0073 15.5888 51.5947 16.0788 51.0827 16.4475C49.7064 17.316 48.0902 17.7257 46.4664 17.6178C44.6966 17.728 42.9453 17.2057 41.525 16.1441C40.3547 15.1471 39.7695 13.6517 39.7695 11.6362C39.7695 9.68561 40.333 8.16852 41.4817 7.17158C42.6303 6.15296 44.1908 5.65449 46.2063 5.65449ZM46.3797 8.40692C45.0143 8.40692 44.2558 9.0571 44.1041 10.3358H48.3086C48.3217 10.078 48.2824 9.82023 48.193 9.57808C48.1036 9.33594 47.966 9.11446 47.7884 8.92707C47.6025 8.74741 47.3813 8.60839 47.1388 8.51884C46.8962 8.4293 46.6378 8.39118 46.3797 8.40692Z" fill="#2D2727"/>
<path d="M60.8776 17.3584L60.5092 15.733C60.1199 16.3379 59.5789 16.8303 58.94 17.1611C58.3012 17.492 57.5869 17.6496 56.8682 17.6185C56.1956 17.6579 55.5229 17.5414 54.9027 17.2783C54.2824 17.0152 53.7313 16.6124 53.2922 16.1014C52.4469 15.0828 52.0352 13.5874 52.0352 11.6152C52.0352 9.66462 52.4686 8.1692 53.2922 7.17226C54.1374 6.15364 55.3294 5.65517 56.8682 5.65517C58.1685 5.65517 59.2522 6.08862 60.0757 6.9772V1.64572H64.3886V17.3584H60.8776ZM58.2119 8.84106C56.9765 8.84106 56.348 9.57793 56.348 11.0733V12.222C56.348 13.6957 56.9765 14.4326 58.2119 14.4326C58.8621 14.4326 59.3172 14.2159 59.6423 13.7608C59.9674 13.3273 60.1191 12.7205 60.1191 12.0053V11.2901C60.1191 10.5749 59.9674 9.98971 59.6423 9.53458C59.3172 9.07946 58.8404 8.84106 58.2119 8.84106Z" fill="#2D2727"/>
<path d="M1.84261 24.3362C1.6282 24.3432 1.41498 24.3015 1.21904 24.2141C1.0231 24.1268 0.849539 23.9961 0.711447 23.8319C0.400034 23.4199 0.247616 22.9094 0.282151 22.3941C0.282151 21.774 0.42525 21.2902 0.711447 20.9563C1.00446 20.6156 1.37924 20.452 1.84942 20.452C2.06157 20.4471 2.27211 20.4898 2.46554 20.5771C2.65896 20.6644 2.83031 20.7939 2.96696 20.9563C3.27977 21.3653 3.43461 21.8733 3.40307 22.3873C3.43796 22.9058 3.28294 23.4193 2.96696 23.8319C2.82959 23.9952 2.65713 24.1253 2.46245 24.2126C2.26777 24.2999 2.05589 24.3421 1.84261 24.3362ZM1.84261 23.9682C2.16969 23.9682 2.42863 23.8319 2.61943 23.5389C2.82179 23.1925 2.91887 22.7947 2.89882 22.3941C2.89882 21.9171 2.80342 21.5355 2.61943 21.2493C2.54054 21.114 2.42694 21.0022 2.29036 20.9256C2.15379 20.8489 1.9992 20.8101 1.84261 20.8132C1.685 20.8096 1.52928 20.8481 1.39153 20.9248C1.25377 21.0014 1.13897 21.1135 1.05897 21.2493C0.854238 21.5949 0.754776 21.9928 0.772775 22.3941C0.772775 22.8711 0.868175 23.2459 1.05897 23.5389C1.13983 23.6735 1.25501 23.7841 1.3927 23.8596C1.5304 23.935 1.68567 23.9725 1.84261 23.9682Z" fill="#2D2727"/>
<path d="M7.2408 24.2266H6.80469V20.5605H7.28168L8.94436 23.1635L9.1079 23.4566L9.09427 23.1704V20.5605H9.53719V24.2266H9.07383L7.39071 21.6099L7.23398 21.3169L7.2408 21.6099V24.2266Z" fill="#2D2727"/>
<path d="M13.0586 24.2266V20.5605H13.5356V23.8177H15.464V24.2266H13.0586Z" fill="#2D2727"/>
<path d="M19.1957 24.2266H18.7188V20.5605H19.1957V24.2266Z" fill="#2D2727"/>
<path d="M23.1666 24.2266H22.7305V20.5605H23.2075L24.8701 23.1635L25.0337 23.4566L25.0201 23.1704V20.5605H25.463V24.2266H24.9996L23.3165 21.6099L23.1598 21.3169L23.1666 21.6099V24.2266Z" fill="#2D2727"/>
<path d="M28.9844 24.2266V20.5605H31.0559V20.9557H29.4614V22.1142H30.8515V22.4889H29.4614V23.8177H31.1854V24.2266H28.9844Z" fill="#2D2727"/>
<path d="M40.6884 24.2266V20.9285H39.4414V20.5605H42.392V20.9285H41.1654V24.2266H40.6884Z" fill="#2D2727"/>
<path d="M46.1254 24.2266H45.6484V20.5605H46.7864C47.0018 20.5463 47.2173 20.5861 47.4133 20.6763C47.5565 20.7598 47.6724 20.8828 47.7472 21.0307C47.8205 21.1694 47.8621 21.3226 47.8692 21.4793C47.8763 21.6359 47.8486 21.7923 47.7881 21.937C47.7283 22.0689 47.6452 22.1889 47.5428 22.2913C47.413 22.4185 47.2573 22.5161 47.0862 22.5775C47.1503 22.6107 47.2098 22.6519 47.2634 22.7002C47.3729 22.8373 47.4709 22.9831 47.5564 23.1363L48.1424 24.2266H47.5973L47.0794 23.2589C46.9577 23.0281 46.7962 22.8205 46.6024 22.6457H46.1254V24.2266ZM46.1254 22.2845H46.5888C46.7796 22.2845 46.9295 22.2504 47.0317 22.1959C47.1401 22.1341 47.2278 22.0416 47.2839 21.9302C47.343 21.8142 47.3734 21.6856 47.3724 21.5554C47.3752 21.4491 47.3518 21.3438 47.3043 21.2487C47.255 21.1565 47.1821 21.0789 47.0931 21.0239C47.0045 20.9557 46.8477 20.9285 46.6297 20.9285H46.1254V22.2845Z" fill="#2D2727"/>
<path d="M51.5836 24.2266H51.1406L52.6398 20.5605H53.1236L54.5137 24.2266H53.9958L53.6142 23.2181H51.9992L51.5836 24.2266ZM52.1423 22.8501H53.4711L52.8306 21.1465L52.1423 22.8501Z" fill="#2D2727"/>
<path d="M58.2387 24.2266H57.7617V20.5605H58.2387V24.2266Z" fill="#2D2727"/>
<path d="M62.2017 24.2266H61.7656V20.5605H62.2426L63.9053 23.1635L64.0688 23.4566L64.0552 23.1704V20.5605H64.4981V24.2266H64.0348L62.3516 21.6099L62.1949 21.3169L62.2017 21.6099V24.2266Z" fill="#2D2727"/>
<path d="M68.5122 24.2266H68.0352V20.5605H68.5122V24.2266Z" fill="#2D2727"/>
<path d="M72.4752 24.2266H72.0391V20.5605H72.5161L74.1787 23.1635L74.3423 23.4566L74.3286 23.1704V20.5605H74.7716V24.2266H74.3082L72.6251 21.6099L72.4684 21.3169L72.4752 21.6099V24.2266Z" fill="#2D2727"/>
<path d="M80.9235 24.0631C80.5782 24.2356 80.1987 24.3287 79.8128 24.3357C79.5029 24.3477 79.1958 24.2722 78.9269 24.1176C78.6914 23.9623 78.5029 23.7455 78.3818 23.4907C78.2341 23.1588 78.1642 22.7975 78.1774 22.4345C78.1774 21.9575 78.2455 21.5759 78.3682 21.3101C78.4882 21.0479 78.6827 20.8267 78.9274 20.6741C79.1721 20.5214 79.4563 20.4441 79.7446 20.4516C79.9469 20.4482 80.148 20.4829 80.3375 20.5538C80.5092 20.6156 80.6586 20.7271 80.7668 20.874C80.8626 20.9894 80.9176 21.1331 80.9235 21.2829V21.3238H80.4942V21.2965C80.4929 21.2066 80.4562 21.1209 80.392 21.058C80.3225 20.9822 80.2361 20.9238 80.1399 20.8877C80.0227 20.8416 79.8978 20.8184 79.7719 20.8195C79.6106 20.8126 79.4503 20.848 79.3069 20.9221C79.1634 20.9962 79.0419 21.1065 78.9542 21.242C78.7516 21.593 78.6568 21.9959 78.6816 22.4004C78.6816 22.8842 78.7702 23.2726 78.9678 23.5588C79.0567 23.6886 79.1772 23.7936 79.3178 23.8639C79.4585 23.9342 79.6148 23.9676 79.7719 23.9609C79.9763 23.9609 80.2148 23.9132 80.4874 23.8178V22.7684H79.6629V22.4072H80.9235V24.0563V24.0631Z" fill="#2D2727"/>
<path d="M91.6889 23.4367H92.125V23.4639C92.1201 23.6232 92.0679 23.7773 91.9751 23.9069C91.8748 24.053 91.7321 24.1648 91.5663 24.2271C91.3776 24.3015 91.1762 24.3385 90.9734 24.3362C90.759 24.343 90.5456 24.3033 90.348 24.2197C90.1504 24.1362 89.9732 24.0109 89.8286 23.8524C89.5288 23.5185 89.3789 23.0346 89.3789 22.3941C89.3789 21.7468 89.5288 21.2629 89.8218 20.929C90.1148 20.6088 90.5033 20.4452 90.9666 20.4452C91.174 20.4411 91.3801 20.4782 91.5731 20.5543C91.7423 20.6213 91.8855 20.7407 91.9819 20.895C92.0705 21.0211 92.1202 21.1703 92.125 21.3243V21.3515H91.6957V21.3243C91.6929 21.2331 91.6619 21.1451 91.6072 21.0721C91.5493 20.9854 91.466 20.9188 91.3687 20.8813C91.2492 20.8349 91.122 20.8117 90.9939 20.8132C90.8246 20.8041 90.6562 20.8419 90.5071 20.9225C90.358 21.003 90.234 21.1232 90.1489 21.2698C89.9536 21.6137 89.8592 22.0058 89.8763 22.4009C89.8763 22.8643 89.9649 23.2459 90.1489 23.5389C90.2369 23.6778 90.3603 23.7907 90.5064 23.8662C90.6525 23.9416 90.8161 23.9768 90.9803 23.9682C91.2392 23.9682 91.4232 23.9273 91.5254 23.8115C91.5749 23.7678 91.615 23.7144 91.6431 23.6546C91.6713 23.5949 91.6868 23.53 91.6889 23.4639V23.4367Z" fill="#2D2727"/>
<path d="M96.9168 24.3362C96.7024 24.3432 96.4892 24.3015 96.2933 24.2141C96.0973 24.1268 95.9238 23.9961 95.7857 23.8319C95.4743 23.4199 95.3218 22.9094 95.3564 22.3941C95.3564 21.774 95.4995 21.2902 95.7857 20.9563C96.0787 20.6156 96.4535 20.452 96.9236 20.452C97.1358 20.4471 97.3463 20.4898 97.5398 20.5771C97.7332 20.6644 97.9045 20.7939 98.0412 20.9563C98.354 21.3653 98.5088 21.8733 98.4773 22.3873C98.5122 22.9058 98.3572 23.4193 98.0412 23.8319C97.9038 23.9952 97.7313 24.1253 97.5367 24.2126C97.342 24.2999 97.1301 24.3421 96.9168 24.3362ZM96.9168 23.9682C97.2439 23.9682 97.5029 23.8319 97.6937 23.5389C97.896 23.1925 97.9931 22.7947 97.973 22.3941C97.973 21.9171 97.8776 21.5355 97.6937 21.2493C97.6148 21.114 97.5012 21.0022 97.3646 20.9256C97.228 20.8489 97.0734 20.8101 96.9168 20.8132C96.7592 20.8096 96.6035 20.8481 96.4657 20.9248C96.328 21.0014 96.2132 21.1135 96.1332 21.2493C95.9285 21.5949 95.829 21.9928 95.847 22.3941C95.847 22.8711 95.9424 23.2459 96.1332 23.5389C96.2141 23.6735 96.3292 23.7841 96.4669 23.8596C96.6046 23.935 96.7599 23.9725 96.9168 23.9682Z" fill="#2D2727"/>
<path d="M101.822 20.5608H102.299V22.9185C102.299 23.2592 102.334 23.4909 102.395 23.6067C102.469 23.7304 102.581 23.8262 102.715 23.8793C102.86 23.9417 103.017 23.9739 103.175 23.9739C103.333 23.9739 103.49 23.9417 103.635 23.8793C103.771 23.8112 103.867 23.7158 103.935 23.5863C103.996 23.45 104.03 23.1774 104.03 22.7481V20.5608H104.466V22.8776C104.484 23.1811 104.431 23.4845 104.31 23.7635C104.212 23.9418 104.066 24.0884 103.887 24.1859C103.669 24.2936 103.428 24.3451 103.185 24.3358C102.941 24.3374 102.699 24.2959 102.47 24.2132C102.27 24.1493 102.097 24.0196 101.979 23.8452C101.851 23.5733 101.797 23.2725 101.822 22.973V20.5608Z" fill="#2D2727"/>
<path d="M108.414 24.2266H107.938V20.5605H109.075C109.291 20.5463 109.506 20.5861 109.702 20.6763C109.846 20.7598 109.962 20.8828 110.036 21.0307C110.11 21.1694 110.151 21.3226 110.158 21.4793C110.165 21.6359 110.138 21.7923 110.077 21.937C110.017 22.0689 109.934 22.1889 109.832 22.2913C109.702 22.4185 109.546 22.5161 109.375 22.5775C109.439 22.6107 109.499 22.6519 109.552 22.7002C109.662 22.8373 109.76 22.9831 109.845 23.1363L110.432 24.2266H109.886L109.368 23.2589C109.247 23.0281 109.085 22.8205 108.891 22.6457H108.414V24.2266ZM108.414 22.2845H108.878C109.069 22.2845 109.219 22.2504 109.321 22.1959C109.429 22.1341 109.517 22.0416 109.573 21.9302C109.632 21.8142 109.662 21.6856 109.662 21.5554C109.664 21.4491 109.641 21.3438 109.593 21.2487C109.544 21.1565 109.471 21.0789 109.382 21.0239C109.294 20.9557 109.137 20.9285 108.919 20.9285H108.414V22.2845Z" fill="#2D2727"/>
<path d="M113.609 23.4026H114.086V23.423C114.086 23.6274 114.155 23.7705 114.304 23.8591C114.483 23.9428 114.68 23.9803 114.877 23.9682C115.081 23.9682 115.258 23.9068 115.395 23.7842C115.538 23.6683 115.606 23.5116 115.606 23.3072C115.609 23.2321 115.594 23.1575 115.563 23.0889C115.533 23.0204 115.487 22.9599 115.429 22.9119C115.26 22.7859 115.074 22.6849 114.877 22.6121L114.686 22.5303C114.477 22.4558 114.28 22.3526 114.1 22.2237C113.981 22.1266 113.884 22.006 113.814 21.8694C113.75 21.7354 113.717 21.5886 113.718 21.4401C113.718 21.1607 113.814 20.929 114.018 20.7382C114.223 20.5474 114.516 20.452 114.931 20.452C115.32 20.452 115.586 20.5201 115.742 20.6564C115.816 20.7191 115.876 20.7975 115.916 20.8859C115.956 20.9743 115.976 21.0705 115.974 21.1675V21.1879H115.497V21.1607C115.496 21.0954 115.472 21.0325 115.429 20.9835C115.371 20.919 115.295 20.8739 115.211 20.854C115.106 20.8257 114.999 20.8119 114.89 20.8132C114.659 20.8132 114.482 20.8745 114.373 20.9971C114.318 21.0506 114.276 21.1142 114.246 21.1844C114.217 21.2546 114.202 21.33 114.202 21.406C114.209 21.4984 114.24 21.5876 114.291 21.6649C114.341 21.7625 114.413 21.8466 114.502 21.9103C114.656 21.9974 114.815 22.0747 114.979 22.1419L115.204 22.2237C115.482 22.3233 115.729 22.4949 115.919 22.7211C116.038 22.8834 116.102 23.0789 116.103 23.2799C116.1 23.4671 116.049 23.6503 115.953 23.8114C115.859 23.9786 115.716 24.1138 115.545 24.1998C115.331 24.2971 115.098 24.3437 114.863 24.3361C114.63 24.3419 114.397 24.3073 114.175 24.2339C114.001 24.179 113.852 24.0658 113.752 23.9136C113.658 23.7675 113.608 23.597 113.609 23.423V23.4026Z" fill="#2D2727"/>
<path d="M119.465 24.2266V20.5605H121.536V20.9557H119.942V22.1142H121.332V22.4889H119.942V23.8177H121.666V24.2266H119.465Z" fill="#2D2727"/>
<path d="M119.814 0.343245V1.34277H119.383V0.343245H118.941V-0.000342369H120.253V0.343245H119.814Z" fill="#2D2727"/>
<path d="M121.572 1.34277V0.858627C121.572 0.716198 121.582 0.573964 121.603 0.433047H121.595L121.347 1.34277H121.009L120.76 0.434999H120.752C120.76 0.515134 120.769 0.595179 120.779 0.67512C120.785 0.73759 120.787 0.798109 120.787 0.858627V1.34277H120.391V-0.000342369H121L121.203 0.774682H121.211L121.412 -0.000342369H121.999V1.34277H121.572Z" fill="#2D2727"/>
</svg>
