<svg xmlns="http://www.w3.org/2000/svg" xmlns:xlink="http://www.w3.org/1999/xlink" viewBox="0 0 788.12 105.32"><defs><style>.cls-1{fill:#2c292a;}.cls-2{fill:#fbb723;}.cls-3{fill:url(#linear-gradient);}</style><linearGradient id="linear-gradient" x1="197.96" y1="25.68" x2="197.96" y2="0.3" gradientUnits="userSpaceOnUse"><stop offset="0" stop-color="#fb9823"/><stop offset="1" stop-color="#fbb723"/></linearGradient></defs><g id="Layer_2" data-name="Layer 2"><g id="Layer_1-2" data-name="Layer 1"><path id="l1" class="cls-1" d="M63.4,60.57q0,12.67-5,19.09T42.81,86.07q-10.59,0-15.51-6.41T22.37,60.57V0H0V59.38Q0,81.76,10.9,93.54t31.93,11.78q21,0,32-11.78t11-34.16V0H63.4Z"/><path id="l2" class="cls-1" d="M143.43,26.85a31.89,31.89,0,0,0-14,2.77,28.38,28.38,0,0,0-9.69,7.69V27.76H99.43v76.66h21V65.2q0-10,4.48-15.51t12.68-5.53q15.51,0,15.51,19.85v40.41h21V62.81q0-19.25-8.65-27.6T143.43,26.85Z"/><path id="l4" class="cls-1" d="M245.19,84.88c-1.15-1.18-1.72-3.13-1.72-5.82V45.5h23V27.74h-23V0h-21V82.49q0,21.93,21.93,21.93h23V86.66H250.92C248.25,86.68,246.34,86.07,245.19,84.88Z"/><path id="l5" class="cls-1" d="M331.15,31.39a44.37,44.37,0,0,0-20.52-4.54,41.12,41.12,0,0,0-20.22,4.84,33.89,33.89,0,0,0-13.56,13.73A42.79,42.79,0,0,0,272,66.24a41.42,41.42,0,0,0,5,20.66,33.55,33.55,0,0,0,14.33,13.64q9.31,4.78,22.15,4.78a41.3,41.3,0,0,0,17.46-3.5,31.44,31.44,0,0,0,12.23-9.62A30.37,30.37,0,0,0,349,78.49H328.24a13.06,13.06,0,0,1-5.6,8.13A19.21,19.21,0,0,1,312,89.38q-8.07,0-12.68-4.78t-5.37-13.12v-.59h55.63a37.71,37.71,0,0,0,.59-7.15A37.7,37.7,0,0,0,345,44.28,33.47,33.47,0,0,0,331.15,31.39ZM294.38,57.14A16.1,16.1,0,0,1,300,46.48a17.36,17.36,0,0,1,11.56-3.95,18.2,18.2,0,0,1,11.86,3.8q4.69,3.81,5.75,10.81Z"/><path id="l6" class="cls-1" d="M417.29,37.29q-8.21-10.45-23.13-10.44a35,35,0,0,0-18.27,4.84,33,33,0,0,0-12.68,13.72,44.23,44.23,0,0,0-4.54,20.51,45.34,45.34,0,0,0,4.54,20.74,33.43,33.43,0,0,0,12.6,13.81,34.75,34.75,0,0,0,18.2,4.85q15.08,0,23.87-11.49l2.1,10.59h18.34V0h-21Zm-4.76,44.83a18.29,18.29,0,0,1-27.23-.07q-5.15-6.12-5.15-16c0-6.56,1.7-11.88,5.15-16a18.22,18.22,0,0,1,27.23,0q5.06,6.12,5.07,16.11T412.53,82.12Z"/><path id="l7" class="cls-2" d="M477,61h49.38V42.66H477V19.24h49.38V0H454.58V104.42h71.76V85.18H477Z"/><path id="l8" class="cls-2" d="M562.13,0H539.76V104.42H603.6V85.18H562.13Z"/><path id="l9" class="cls-2" d="M679.61,6.63Q667.6,0,651.94,0H615.69V104.42h36.25q15.64,0,27.67-6.64a45.87,45.87,0,0,0,18.49-18.5,55.49,55.49,0,0,0,6.49-27.07,55.59,55.59,0,0,0-6.49-27.08A46.18,46.18,0,0,0,679.61,6.63Zm-5.67,70q-7.85,9.16-22,9.17H638.06V18.64h13.88q14.17,0,22,9.18t7.84,24.39Q681.78,67.42,673.94,76.6Z"/><path id="l10" class="cls-2" d="M705.48,0V19.24l52.5.11L738.36,29.73a5.17,5.17,0,0,0-2.76,4.57v70.12H758V19.35h0v-.11h30.14V0Z"/><path class="cls-1" d="M208.52,27.74H187.41v76.68h21.11Z"/><g id="i-dot"><path class="cls-3" d="M187.45,0V25.89l18.27-9.65a5.17,5.17,0,0,0,2.76-4.58V0Z"/></g></g></g></svg>