<svg width="176" height="36" viewBox="0 0 176 36" fill="none" xmlns="http://www.w3.org/2000/svg">
<g clip-path="url(#clip0_2593_57803)">
<path d="M91.1309 2.41537H110.752V7.85656H98.4188V10.9894H108.971V16.1997H98.4188V19.6623H110.983V25.1035H91.1309V2.41537Z" fill="#FBB723"/>
<path d="M112.531 2.41537H119.819V19.2996H131.46V25.1035H112.531V2.41537Z" fill="#FBB723"/>
<path d="M141.948 2.41537C149.863 2.41537 153.853 6.20772 153.853 13.7594C153.853 21.3441 149.896 25.1035 141.948 25.1035H132.121V2.41537H141.948ZM139.409 19.6623H141.816C144.883 19.6623 146.4 18.0135 146.4 14.7487V12.7701C146.4 9.47243 144.883 7.85656 141.816 7.85656H139.409V19.6623Z" fill="#FBB723"/>
<path d="M168.428 8.22029V25.1045H161.14V8.22029H153.688V2.41634H175.848V8.22029H168.428Z" fill="#FBB723"/>
<path d="M21.3419 16.418C21.3419 19.3555 20.4044 21.6055 18.5607 23.1368C16.2795 24.8139 13.4798 25.6328 10.6544 25.4493C7.8199 25.6268 5.01241 24.8089 2.71682 23.1368C0.841803 21.5743 -0.0644531 19.3555 -0.0644531 16.418V3.57415H6.84185V16.3242C6.84185 17.543 7.15435 18.5118 7.8106 19.2305C8.43561 19.9493 9.37311 20.293 10.6231 20.293C11.8731 20.293 12.8106 19.918 13.4356 19.1993C14.1261 18.4051 14.4842 17.3755 14.4356 16.3242V3.57415H21.3419V16.418Z" fill="#2C292A"/>
<path d="M33.7481 8.1991C35.6544 8.1991 37.0919 8.73035 38.0607 9.79286C38.9982 10.8554 39.4982 12.3866 39.4982 14.3866V25.0742H33.2794V15.1367C33.2794 14.4179 33.0919 13.8866 32.7169 13.4491C32.3731 13.0116 31.8419 12.7929 31.1856 12.7929C30.8381 12.7806 30.4919 12.841 30.169 12.9701C29.8461 13.0993 29.5538 13.2944 29.3106 13.5429C29.0746 13.7872 28.8895 14.0761 28.7661 14.3926C28.6427 14.7091 28.5834 15.047 28.5918 15.3867V25.0742H22.373V8.5741H27.4668L27.8731 11.0741C28.5717 10.1823 29.4632 9.46036 30.4807 8.96242C31.4982 8.46449 32.6153 8.20352 33.7481 8.1991Z" fill="#2C292A"/>
<path d="M40.2793 6.63659V2.41781H46.4981V6.63659H40.2793ZM40.2793 25.0742V8.5741H46.4981V25.0742H40.2793Z" fill="#2C292A"/>
<path d="M58.3106 8.57386V12.7926H54.8106V19.0739C54.8106 19.8239 54.9356 20.3864 55.1856 20.7302C55.4356 21.0427 55.9044 21.2302 56.5606 21.2302H58.3106V24.8865C57.0388 25.6139 55.5843 25.9595 54.1212 25.8819C52.6581 25.8043 51.2483 25.3068 50.0606 24.449C49.0918 23.7927 48.5918 22.6365 48.5918 21.0427V12.7926H46.2793V8.57386H48.8418L50.1856 3.57382H54.8106V8.57386H58.3106Z" fill="#2C292A"/>
<path d="M66.5606 8.1981C69.5919 8.1981 71.8731 8.91686 73.4669 10.3231C75.0607 11.7294 75.8732 13.9169 75.8732 16.8232V17.8857H63.4981C63.4981 19.0732 63.7481 19.9794 64.2793 20.5732C64.8106 21.1982 65.6544 21.4794 66.8106 21.4794C67.8419 21.4794 68.6231 21.2607 69.0919 20.8232C69.3407 20.6069 69.5374 20.3371 69.6673 20.0341C69.7971 19.731 69.8568 19.4025 69.8419 19.0732H75.8732C75.9103 19.9822 75.7213 20.8863 75.3232 21.7044C74.9251 22.5225 74.3302 23.229 73.5919 23.7607C71.6075 25.013 69.277 25.6038 66.9356 25.4482C64.3838 25.6072 61.8585 24.854 59.8106 23.3232C58.1231 21.8857 57.2793 19.7294 57.2793 16.8232C57.2793 14.0106 58.0918 11.8231 59.7481 10.3856C61.4043 8.91686 63.6543 8.1981 66.5606 8.1981ZM66.8106 12.1669C64.8418 12.1669 63.7481 13.1044 63.5293 14.9482H69.5919C69.6108 14.5764 69.5541 14.2048 69.4252 13.8556C69.2963 13.5064 69.0978 13.1871 68.8419 12.9169C68.5738 12.6578 68.2548 12.4574 67.9051 12.3283C67.5554 12.1991 67.1827 12.1442 66.8106 12.1669Z" fill="#2C292A"/>
<path d="M87.7188 25.0732L87.1876 22.7294C86.6262 23.6017 85.8461 24.3117 84.925 24.7887C84.0039 25.2657 82.9739 25.4931 81.9375 25.4482C80.9677 25.5049 79.9978 25.3371 79.1035 24.9577C78.2092 24.5782 77.4144 23.9975 76.7813 23.2607C75.5625 21.7919 74.9688 19.6357 74.9688 16.7919C74.9688 13.9794 75.5938 11.8231 76.7813 10.3856C78 8.91684 79.7188 8.19809 81.9375 8.19809C83.8126 8.19809 85.3751 8.82309 86.5626 10.1044V2.4168H92.7814V25.0732H87.7188ZM83.8751 12.7919C82.0938 12.7919 81.1875 13.8544 81.1875 16.0106V17.6669C81.1875 19.7919 82.0938 20.8544 83.8751 20.8544C84.8126 20.8544 85.4688 20.5419 85.9376 19.8857C86.4063 19.2607 86.6251 18.3857 86.6251 17.3544V16.3231C86.6251 15.2919 86.4063 14.4481 85.9376 13.7919C85.4688 13.1356 84.7813 12.7919 83.8751 12.7919Z" fill="#2C292A"/>
<path d="M2.59292 35.1356C2.28375 35.1458 1.97632 35.0856 1.69378 34.9596C1.41125 34.8337 1.16099 34.6453 0.961878 34.4085C0.512847 33.8144 0.293072 33.0784 0.342869 32.3353C0.342869 31.4412 0.549205 30.7436 0.961878 30.2621C1.38438 29.7709 1.92478 29.5351 2.60275 29.5351C2.90864 29.5279 3.21223 29.5895 3.49113 29.7154C3.77002 29.8412 4.0171 30.0281 4.21414 30.2621C4.66519 30.8519 4.88846 31.5845 4.84297 32.3255C4.89328 33.0732 4.66976 33.8136 4.21414 34.4085C4.01606 34.6439 3.76739 34.8316 3.48668 34.9575C3.20596 35.0834 2.90045 35.1443 2.59292 35.1356ZM2.59292 34.605C3.06455 34.605 3.43792 34.4085 3.71303 33.986C4.00481 33.4866 4.1448 32.913 4.11588 32.3353C4.11588 31.6475 3.97832 31.0973 3.71303 30.6846C3.59928 30.4895 3.43547 30.3284 3.23854 30.2178C3.04161 30.1073 2.81872 30.0513 2.59292 30.0558C2.36566 30.0506 2.14113 30.1061 1.94249 30.2167C1.74386 30.3272 1.57833 30.4888 1.46298 30.6846C1.16777 31.183 1.02436 31.7567 1.05031 32.3353C1.05031 33.0231 1.18787 33.5635 1.46298 33.986C1.57957 34.1801 1.74564 34.3397 1.94419 34.4484C2.14273 34.5572 2.36662 34.6112 2.59292 34.605Z" fill="#2C292A"/>
<path d="M10.371 34.9785H9.74219V29.6924H10.43L12.8274 33.4457L13.0632 33.8682L13.0436 33.4556V29.6924H13.6822V34.9785H13.0141L10.5872 31.2055L10.3612 30.783L10.371 31.2055V34.9785Z" fill="#2C292A"/>
<path d="M18.7715 34.9785V29.6924H19.4593V34.389H22.2399V34.9785H18.7715Z" fill="#2C292A"/>
<path d="M27.6136 34.9785H26.9258V29.6924H27.6136V34.9785Z" fill="#2C292A"/>
<path d="M33.332 34.9785H32.7031V29.6924H33.3909L35.7883 33.4457L36.0242 33.8682L36.0045 33.4556V29.6924H36.6432V34.9785H35.975L33.5481 31.2055L33.3221 30.783L33.332 31.2055V34.9785Z" fill="#2C292A"/>
<path d="M41.7344 34.9785V29.6924H44.7213V30.2623H42.4222V31.9326H44.4266V32.473H42.4222V34.389H44.908V34.9785H41.7344Z" fill="#2C292A"/>
<path d="M58.6028 34.9785V30.2229H56.8047V29.6924H61.0592V30.2229H59.2906V34.9785H58.6028Z" fill="#2C292A"/>
<path d="M66.4456 34.9785H65.7578V29.6924H67.3987C67.7092 29.6718 68.0199 29.7293 68.3026 29.8594C68.5091 29.9797 68.6763 30.1571 68.7841 30.3703C68.8897 30.5703 68.9498 30.7912 68.96 31.0171C68.9702 31.2431 68.9302 31.4685 68.843 31.6771C68.7568 31.8673 68.6369 32.0404 68.4893 32.1881C68.3022 32.3715 68.0776 32.5122 67.831 32.6007C67.9234 32.6485 68.0092 32.708 68.0865 32.7776C68.2443 32.9753 68.3856 33.1856 68.509 33.4064L69.354 34.9785H68.5679L67.8212 33.5833C67.6456 33.2504 67.4128 32.9511 67.1334 32.699H66.4456V34.9785ZM66.4456 32.1782H67.1137C67.3889 32.1782 67.605 32.1291 67.7524 32.0505C67.9087 31.9613 68.0351 31.828 68.1159 31.6673C68.2013 31.5 68.2451 31.3147 68.2437 31.1269C68.2477 30.9737 68.214 30.8218 68.1454 30.6847C68.0743 30.5517 67.9692 30.4398 67.8408 30.3605C67.7131 30.2623 67.4871 30.2229 67.1727 30.2229H66.4456V32.1782Z" fill="#2C292A"/>
<path d="M74.3144 34.9785H73.6758L75.8374 29.6924H76.535L78.5394 34.9785H77.7927L77.2425 33.5243H74.9138L74.3144 34.9785ZM75.1201 32.9938H77.0361L76.1125 30.5374L75.1201 32.9938Z" fill="#2C292A"/>
<path d="M83.9144 34.9785H83.2266V29.6924H83.9144V34.9785Z" fill="#2C292A"/>
<path d="M89.6327 34.9785H89.0039V29.6924H89.6917L92.0891 33.4457L92.3249 33.8682L92.3053 33.4556V29.6924H92.944V34.9785H92.2758L89.8489 31.2055L89.6229 30.783L89.6327 31.2055V34.9785Z" fill="#2C292A"/>
<path d="M98.7229 34.9785H98.0352V29.6924H98.7229V34.9785Z" fill="#2C292A"/>
<path d="M104.441 34.9785H103.812V29.6924H104.5L106.898 33.4457L107.134 33.8682L107.114 33.4556V29.6924H107.753V34.9785H107.084L104.657 31.2055L104.432 30.783L104.441 31.2055V34.9785Z" fill="#2C292A"/>
<path d="M116.622 34.7419C116.124 34.9906 115.577 35.1249 115.021 35.1349C114.574 35.1523 114.131 35.0433 113.743 34.8205C113.404 34.5965 113.132 34.2839 112.957 33.9166C112.744 33.438 112.643 32.9171 112.662 32.3936C112.662 31.7058 112.761 31.1556 112.938 30.7724C113.111 30.3943 113.391 30.0753 113.744 29.8552C114.097 29.6351 114.507 29.5236 114.922 29.5344C115.214 29.5295 115.504 29.5795 115.777 29.6817C116.025 29.7709 116.24 29.9316 116.396 30.1435C116.534 30.3098 116.614 30.5171 116.622 30.7331V30.792H116.003V30.7527C116.001 30.6231 115.948 30.4995 115.856 30.4088C115.756 30.2995 115.631 30.2154 115.492 30.1632C115.323 30.0967 115.143 30.0633 114.962 30.0649C114.729 30.055 114.498 30.106 114.291 30.2128C114.084 30.3197 113.909 30.4787 113.783 30.6741C113.49 31.1803 113.354 31.7612 113.39 32.3445C113.39 33.0421 113.517 33.6021 113.802 34.0148C113.93 34.2019 114.104 34.3532 114.307 34.4547C114.51 34.5561 114.735 34.6042 114.962 34.5945C115.256 34.5945 115.6 34.5257 115.993 34.3882V32.875H114.804V32.3543H116.622V34.7321V34.7419Z" fill="#2C292A"/>
<path d="M132.143 33.8387H132.772V33.878C132.765 34.1076 132.69 34.3299 132.556 34.5166C132.411 34.7273 132.206 34.8885 131.967 34.9784C131.694 35.0857 131.404 35.139 131.112 35.1356C130.802 35.1455 130.495 35.0882 130.21 34.9678C129.925 34.8473 129.669 34.6666 129.461 34.438C129.029 33.9566 128.812 33.259 128.812 32.3354C128.812 31.4019 129.029 30.7043 129.451 30.2229C129.874 29.7611 130.434 29.5253 131.102 29.5253C131.401 29.5193 131.698 29.5727 131.976 29.6825C132.22 29.779 132.427 29.9512 132.566 30.1737C132.693 30.3556 132.765 30.5707 132.772 30.7927V30.832H132.153V30.7927C132.149 30.6613 132.104 30.5343 132.025 30.4292C131.942 30.3042 131.822 30.208 131.682 30.1541C131.509 30.0871 131.326 30.0537 131.141 30.0558C130.897 30.0427 130.654 30.0972 130.439 30.2134C130.224 30.3295 130.046 30.5028 129.923 30.7141C129.641 31.2101 129.505 31.7754 129.53 32.3452C129.53 33.0133 129.657 33.5636 129.923 33.9861C130.05 34.1863 130.228 34.3492 130.438 34.4579C130.649 34.5667 130.885 34.6175 131.122 34.6051C131.495 34.6051 131.76 34.5461 131.908 34.3791C131.979 34.3161 132.037 34.2391 132.077 34.1529C132.118 34.0667 132.14 33.9732 132.143 33.878V33.8387Z" fill="#2C292A"/>
<path d="M139.689 35.1356C139.379 35.1458 139.072 35.0856 138.789 34.9596C138.507 34.8337 138.257 34.6453 138.058 34.4085C137.609 33.8144 137.389 33.0784 137.439 32.3353C137.439 31.4412 137.645 30.7436 138.058 30.2621C138.48 29.7709 139.02 29.5351 139.698 29.5351C140.004 29.5279 140.308 29.5895 140.587 29.7154C140.866 29.8412 141.113 30.0281 141.31 30.2621C141.761 30.8519 141.984 31.5845 141.939 32.3255C141.989 33.0732 141.765 33.8136 141.31 34.4085C141.112 34.6439 140.863 34.8316 140.582 34.9575C140.302 35.0834 139.996 35.1443 139.689 35.1356ZM139.689 34.605C140.16 34.605 140.534 34.4085 140.809 33.986C141.101 33.4866 141.241 32.913 141.212 32.3353C141.212 31.6475 141.074 31.0973 140.809 30.6846C140.695 30.4895 140.531 30.3284 140.334 30.2178C140.137 30.1073 139.914 30.0513 139.689 30.0558C139.461 30.0506 139.237 30.1061 139.038 30.2167C138.84 30.3272 138.674 30.4888 138.559 30.6846C138.263 31.183 138.12 31.7567 138.146 32.3353C138.146 33.0231 138.284 33.5635 138.559 33.986C138.675 34.1801 138.841 34.3397 139.04 34.4484C139.238 34.5572 139.462 34.6112 139.689 34.605Z" fill="#2C292A"/>
<path d="M146.761 29.6938H147.448V33.0934C147.448 33.5847 147.498 33.9188 147.586 34.0858C147.693 34.2641 147.855 34.4022 148.048 34.4788C148.257 34.5688 148.483 34.6153 148.711 34.6153C148.939 34.6153 149.165 34.5688 149.374 34.4788C149.571 34.3806 149.708 34.243 149.807 34.0563C149.895 33.8598 149.944 33.4668 149.944 32.8478V29.6938H150.573V33.0345C150.599 33.4721 150.521 33.9096 150.347 34.3118C150.206 34.5689 149.995 34.7803 149.738 34.921C149.424 35.0762 149.076 35.1505 148.726 35.1371C148.374 35.1394 148.025 35.0795 147.694 34.9603C147.405 34.8681 147.156 34.6812 146.987 34.4297C146.802 34.0376 146.724 33.6038 146.761 33.172V29.6938Z" fill="#2C292A"/>
<path d="M156.26 34.9785H155.572V29.6924H157.213C157.524 29.6718 157.834 29.7293 158.117 29.8594C158.324 29.9797 158.491 30.1571 158.599 30.3703C158.704 30.5703 158.764 30.7912 158.774 31.0171C158.785 31.2431 158.745 31.4685 158.657 31.6771C158.571 31.8673 158.451 32.0404 158.304 32.1881C158.117 32.3715 157.892 32.5122 157.645 32.6007C157.738 32.6485 157.824 32.708 157.901 32.7776C158.059 32.9753 158.2 33.1856 158.323 33.4064L159.168 34.9785H158.382L157.636 33.5833C157.46 33.2504 157.227 32.9511 156.948 32.699H156.26V34.9785ZM156.26 32.1782H156.928C157.203 32.1782 157.419 32.1291 157.567 32.0505C157.723 31.9613 157.85 31.828 157.93 31.6673C158.016 31.5 158.06 31.3147 158.058 31.1269C158.062 30.9737 158.028 30.8218 157.96 30.6847C157.889 30.5517 157.784 30.4398 157.655 30.3605C157.528 30.2623 157.302 30.2229 156.987 30.2229H156.26V32.1782Z" fill="#2C292A"/>
<path d="M163.756 33.7895H164.444V33.819C164.444 34.1137 164.542 34.3201 164.758 34.4478C165.016 34.5684 165.3 34.6225 165.583 34.605C165.878 34.605 166.134 34.5166 166.33 34.3397C166.537 34.1727 166.635 33.9467 166.635 33.6519C166.639 33.5437 166.618 33.4361 166.573 33.3373C166.529 33.2385 166.463 33.1511 166.379 33.082C166.136 32.9003 165.868 32.7547 165.583 32.6497L165.308 32.5318C165.007 32.4244 164.723 32.2756 164.463 32.0897C164.292 31.9497 164.151 31.7757 164.051 31.5787C163.958 31.3856 163.911 31.1738 163.913 30.9597C163.913 30.5569 164.051 30.2228 164.345 29.9477C164.64 29.6726 165.063 29.535 165.662 29.535C166.222 29.535 166.605 29.6333 166.831 29.8298C166.938 29.9201 167.024 30.0331 167.081 30.1606C167.139 30.2881 167.168 30.4268 167.165 30.5667V30.5962H166.478V30.5569C166.476 30.4627 166.442 30.372 166.379 30.3014C166.296 30.2084 166.186 30.1433 166.065 30.1147C165.914 30.0739 165.759 30.054 165.603 30.0558C165.269 30.0558 165.014 30.1442 164.856 30.3211C164.778 30.3981 164.716 30.4899 164.674 30.5911C164.632 30.6923 164.61 30.8009 164.611 30.9106C164.621 31.0439 164.665 31.1724 164.738 31.284C164.81 31.4246 164.915 31.546 165.043 31.6377C165.265 31.7633 165.495 31.8749 165.731 31.9717L166.055 32.0897C166.456 32.2332 166.812 32.4807 167.087 32.8069C167.258 33.0408 167.351 33.3228 167.352 33.6126C167.348 33.8825 167.273 34.1467 167.136 34.379C166.999 34.6201 166.794 34.8151 166.546 34.9391C166.238 35.0792 165.902 35.1465 165.564 35.1356C165.227 35.1439 164.891 35.094 164.571 34.9882C164.321 34.909 164.106 34.7459 163.962 34.5264C163.826 34.3157 163.754 34.0698 163.756 33.819V33.7895Z" fill="#2C292A"/>
<path d="M172.197 34.9785V29.6924H175.184V30.2623H172.885V31.9326H174.889V32.473H172.885V34.389H175.371V34.9785H172.197Z" fill="#2C292A"/>
<path d="M172.692 0.539233V1.98047H172.07V0.539233H171.434V0.0438088H173.325V0.539233H172.692Z" fill="#2C292A"/>
<path d="M175.228 1.98047V1.28237C175.229 1.077 175.244 0.87191 175.273 0.66872H175.262L174.905 1.98047H174.418L174.057 0.671534H174.046C174.058 0.787083 174.071 0.902501 174.086 1.01777C174.094 1.10785 174.097 1.19511 174.097 1.28237V1.98047H173.525V0.0438088H174.404L174.696 1.16133H174.708L174.998 0.0438088H175.845V1.98047H175.228Z" fill="#2C292A"/>
</g>
<defs>
<clipPath id="clip0_2593_57803">
<rect width="176" height="35.2" fill="white"/>
</clipPath>
</defs>
</svg>
