<svg width="108" height="36" viewBox="0 0 108 36" fill="none" xmlns="http://www.w3.org/2000/svg">
<path d="M20.7302 26.0906C11.9162 30.727 0.777953 25.0474 0.0324723 14.6899C-0.424135 8.32902 3.98352 2.1979 10.1723 0.55358C14.9075 -0.704703 19.2033 0.159531 22.968 3.37737C23.0652 3.46019 23.1597 3.54568 23.2529 3.63384C23.2915 3.67124 23.3208 3.71799 23.41 3.83153C22.5021 4.65569 21.5889 5.4852 20.6477 6.34008C19.6759 5.4518 18.4286 4.68107 16.9922 4.2376C10.5757 2.25667 4.09801 7.01998 4.12197 13.7469C4.13661 17.9772 6.0336 21.1323 9.84087 22.9876C13.3207 24.6827 18.2648 24.2018 21.1362 20.984C22.2891 19.691 22.783 18.1415 23.0346 16.401C20.006 16.401 17.0414 16.401 14.0382 16.401C14.0382 15.1254 14.0382 13.9098 14.0382 12.6529C14.1766 12.6422 14.3151 12.6221 14.4535 12.6221C18.378 12.6208 22.3011 12.6262 26.2255 12.6128C26.5849 12.6115 26.75 12.701 26.7886 13.0763C27.152 16.6107 26.6515 19.9421 24.4643 22.8581C23.4659 24.1885 22.2092 25.2437 20.7302 26.0906Z" fill="#376FB4"/>
<path d="M81.3029 33.2091C77.0685 37.4161 68.9974 35.7745 67.3782 30.3583C68.455 29.9084 69.5372 29.4545 70.6591 28.9847C70.8514 29.3086 71.0225 29.6231 71.2174 29.9204C72.8247 32.3703 76.2953 32.9118 78.3973 30.9834C78.8853 30.5362 79.2567 29.8978 79.5153 29.278C79.9914 28.1354 79.937 26.9064 79.8853 25.6934C79.811 25.6854 79.7606 25.6668 79.7474 25.6814C77.8032 27.8434 74.5037 28.2137 71.6458 26.8414C68.2601 25.2156 66.2695 21.6111 66.6726 17.8473C67.0718 14.1113 69.7799 10.9713 73.3976 10.1458C75.7184 9.61624 77.839 10.033 79.6028 11.7463C79.6625 11.8034 79.7394 11.8432 79.8972 11.952C79.8972 11.4265 79.8972 10.9845 79.8972 10.5187C81.1438 10.5187 82.3201 10.5187 83.5243 10.5187C83.5442 10.5944 83.5866 10.678 83.5866 10.7603C83.576 16.3237 83.6105 21.8871 83.5256 27.4479C83.4911 29.5766 82.8227 31.5607 81.3029 33.2091ZM78.7342 14.8771C77.0499 13.1624 74.5938 12.9301 72.6895 14.3064C70.0026 16.2467 69.7295 20.5785 72.1497 22.8599C74.3817 24.9635 77.8496 24.4684 79.3986 21.8234C80.6359 19.7106 80.3826 16.8466 78.7342 14.8771Z" fill="#366FB4"/>
<path d="M49.7447 25.1273C47.3279 22.5026 46.6038 19.4643 47.6173 16.1095C48.6176 12.796 50.9485 10.7656 54.3034 10.1114C59.1184 9.17261 63.5568 11.9716 64.6958 16.6507C65.93 21.7207 62.8208 26.6299 57.7111 27.558C54.6984 28.1071 52.0187 27.2907 49.7447 25.1273ZM51.8179 21.6609C53.6744 24.6713 57.431 25.0715 59.7315 22.5026C61.1982 20.8657 61.4691 18.1293 60.3671 16.0603C58.8026 13.1191 54.9006 12.5593 52.5869 14.9421C50.9656 16.6148 50.63 19.3965 51.8179 21.6609Z" fill="#F4B020"/>
<path d="M29.1827 23.0628C26.4181 17.5854 29.3762 11.3242 35.2618 10.1162C39.3556 9.27532 43.4402 11.3522 45.1524 15.1453C46.8488 18.9012 45.6985 23.4513 42.421 25.9513C38.1602 29.2002 31.832 27.8352 29.1827 23.0628ZM34.5369 14.1222C32.5635 15.4194 31.8598 17.2953 32.0851 19.5824C32.325 22.0144 34.2652 24.0128 36.5314 24.1804C39.072 24.368 41.2309 22.8513 41.8286 20.3527C42.368 18.0949 41.9293 16.0434 40.066 14.5306C38.3868 13.1669 36.5195 13.0991 34.5369 14.1222Z" fill="#E33626"/>
<path d="M101.023 19.298C99.409 19.9585 97.8335 20.6034 96.2606 21.247C97.459 24.387 102.527 25.0736 104.812 21.5226C105.794 22.1676 106.776 22.8125 107.789 23.4782C105.873 26.0591 103.367 27.4166 100.15 27.3034C95.141 27.1279 91.5523 23.1011 91.8835 18.068C92.0872 14.9734 93.3631 12.4601 96.1817 10.9271C99.9951 8.85328 104.458 10.1067 106.718 13.8487C107.203 14.6523 107.556 15.5325 108 16.4414C105.635 17.41 103.347 18.3462 101.023 19.298ZM101.557 15.9369C102.166 15.6794 102.774 15.4233 103.38 15.1672C102.883 13.7395 100.844 12.9529 99.0634 13.4678C96.5418 14.1959 95.342 16.6741 95.6574 18.3527C97.6035 17.5531 99.5417 16.756 101.557 15.9369Z" fill="#E33626"/>
<path d="M90.1536 0.866118C90.1961 4.18624 90.2046 7.46643 90.2061 10.7466C90.2089 15.9404 90.2061 21.1341 90.2046 26.3292C90.2046 26.5075 90.2046 26.6872 90.2046 26.8961C88.8063 26.8961 87.4549 26.8961 86.0693 26.8961C86.0693 18.2239 86.0693 9.55831 86.0693 0.827528C87.418 0.826197 88.7681 0.826197 90.1536 0.866118Z" fill="#289B46"/>
<path d="M14.5393 32.8105H14.099C14.0729 32.6839 14.0274 32.5726 13.9623 32.4767C13.8983 32.3809 13.8202 32.3004 13.7279 32.2353C13.6367 32.169 13.5355 32.1193 13.4243 32.0861C13.313 32.053 13.197 32.0364 13.0763 32.0364C12.8561 32.0364 12.6566 32.092 12.4779 32.2033C12.3003 32.3146 12.1589 32.4785 12.0535 32.6951C11.9494 32.9118 11.8973 33.1775 11.8973 33.4924C11.8973 33.8072 11.9494 34.073 12.0535 34.2896C12.1589 34.5062 12.3003 34.6702 12.4779 34.7814C12.6566 34.8927 12.8561 34.9483 13.0763 34.9483C13.197 34.9483 13.313 34.9318 13.4243 34.8986C13.5355 34.8655 13.6367 34.8163 13.7279 34.7512C13.8202 34.685 13.8983 34.6039 13.9623 34.508C14.0274 34.4109 14.0729 34.2997 14.099 34.1742H14.5393C14.5062 34.36 14.4458 34.5263 14.3582 34.6731C14.2706 34.8199 14.1617 34.9448 14.0315 35.0478C13.9013 35.1496 13.7551 35.2271 13.593 35.2804C13.432 35.3336 13.2597 35.3603 13.0763 35.3603C12.7661 35.3603 12.4903 35.2845 12.2488 35.133C12.0074 34.9815 11.8174 34.766 11.6789 34.4867C11.5404 34.2073 11.4711 33.8759 11.4711 33.4924C11.4711 33.1088 11.5404 32.7774 11.6789 32.498C11.8174 32.2187 12.0074 32.0033 12.2488 31.8517C12.4903 31.7002 12.7661 31.6245 13.0763 31.6245C13.2597 31.6245 13.432 31.6511 13.593 31.7044C13.7551 31.7576 13.9013 31.8358 14.0315 31.9387C14.1617 32.0405 14.2706 32.1648 14.3582 32.3116C14.4458 32.4572 14.5062 32.6235 14.5393 32.8105ZM16.9128 34.1955V32.5833H17.3319V35.3105H16.9128V34.8489H16.8844C16.8205 34.9874 16.7211 35.1052 16.5861 35.2022C16.4512 35.2981 16.2807 35.3461 16.0748 35.3461C15.9043 35.3461 15.7528 35.3088 15.6202 35.2342C15.4876 35.1584 15.3835 35.0448 15.3077 34.8933C15.2319 34.7406 15.1941 34.5482 15.1941 34.3162V32.5833H15.6131V34.2878C15.6131 34.4867 15.6687 34.6453 15.78 34.7637C15.8925 34.882 16.0357 34.9412 16.2097 34.9412C16.3139 34.9412 16.4198 34.9146 16.5275 34.8613C16.6364 34.8081 16.7276 34.7264 16.801 34.6163C16.8755 34.5062 16.9128 34.3659 16.9128 34.1955ZM20.0312 33.1941L19.6547 33.3006C19.6311 33.2379 19.5961 33.1769 19.55 33.1177C19.505 33.0574 19.4434 33.0076 19.3653 32.9686C19.2872 32.9295 19.1872 32.91 19.0653 32.91C18.8983 32.91 18.7593 32.9484 18.648 33.0254C18.5379 33.1011 18.4829 33.1976 18.4829 33.3148C18.4829 33.419 18.5207 33.5012 18.5965 33.5616C18.6723 33.622 18.7906 33.6723 18.9516 33.7125L19.3564 33.812C19.6003 33.8712 19.782 33.9617 19.9015 34.0836C20.0211 34.2044 20.0809 34.36 20.0809 34.5506C20.0809 34.7069 20.0359 34.8465 19.9459 34.9696C19.8572 35.0927 19.7329 35.1898 19.5731 35.2608C19.4133 35.3319 19.2274 35.3674 19.0155 35.3674C18.7374 35.3674 18.5071 35.307 18.3248 35.1863C18.1425 35.0655 18.0271 34.8891 17.9786 34.6571L18.3763 34.5577C18.4142 34.7045 18.4858 34.8146 18.5912 34.888C18.6977 34.9614 18.8368 34.998 19.0084 34.998C19.2037 34.998 19.3588 34.9566 19.4736 34.8738C19.5896 34.7897 19.6476 34.6891 19.6476 34.5719C19.6476 34.4772 19.6145 34.3979 19.5482 34.334C19.4819 34.2689 19.3801 34.2203 19.2428 34.1884L18.7883 34.0819C18.5385 34.0227 18.355 33.9309 18.2378 33.8066C18.1218 33.6812 18.0638 33.5243 18.0638 33.3361C18.0638 33.1822 18.107 33.0461 18.1934 32.9277C18.281 32.8094 18.4 32.7164 18.5503 32.649C18.7019 32.5815 18.8735 32.5478 19.0653 32.5478C19.3351 32.5478 19.547 32.6069 19.7009 32.7253C19.856 32.8437 19.9661 32.9999 20.0312 33.1941ZM21.8977 32.5833V32.9384H20.4844V32.5833H21.8977ZM20.8963 31.9299H21.3153V34.5293C21.3153 34.6477 21.3325 34.7364 21.3668 34.7956C21.4023 34.8536 21.4473 34.8927 21.5018 34.9128C21.5574 34.9318 21.616 34.9412 21.6776 34.9412C21.7237 34.9412 21.7616 34.9389 21.7912 34.9341C21.8208 34.9282 21.8445 34.9235 21.8622 34.9199L21.9474 35.2963C21.919 35.307 21.8794 35.3176 21.8285 35.3283C21.7776 35.3401 21.7131 35.3461 21.6349 35.3461C21.5166 35.3461 21.4006 35.3206 21.2869 35.2697C21.1745 35.2188 21.081 35.1413 21.0064 35.0371C20.933 34.9329 20.8963 34.8016 20.8963 34.6429V31.9299ZM23.6067 35.3674C23.3605 35.3674 23.1445 35.3088 22.9586 35.1916C22.774 35.0744 22.6296 34.9105 22.5254 34.6998C22.4224 34.4891 22.3709 34.2428 22.3709 33.9611C22.3709 33.677 22.4224 33.429 22.5254 33.2172C22.6296 33.0053 22.774 32.8407 22.9586 32.7235C23.1445 32.6064 23.3605 32.5478 23.6067 32.5478C23.8529 32.5478 24.0684 32.6064 24.253 32.7235C24.4389 32.8407 24.5833 33.0053 24.6863 33.2172C24.7904 33.429 24.8425 33.677 24.8425 33.9611C24.8425 34.2428 24.7904 34.4891 24.6863 34.6998C24.5833 34.9105 24.4389 35.0744 24.253 35.1916C24.0684 35.3088 23.8529 35.3674 23.6067 35.3674ZM23.6067 34.9909C23.7937 34.9909 23.9476 34.943 24.0684 34.8471C24.1891 34.7512 24.2785 34.6252 24.3365 34.4689C24.3945 34.3127 24.4235 34.1434 24.4235 33.9611C24.4235 33.7788 24.3945 33.609 24.3365 33.4515C24.2785 33.2941 24.1891 33.1668 24.0684 33.0698C23.9476 32.9727 23.7937 32.9242 23.6067 32.9242C23.4197 32.9242 23.2658 32.9727 23.1451 33.0698C23.0243 33.1668 22.935 33.2941 22.877 33.4515C22.819 33.609 22.79 33.7788 22.79 33.9611C22.79 34.1434 22.819 34.3127 22.877 34.4689C22.935 34.6252 23.0243 34.7512 23.1451 34.8471C23.2658 34.943 23.4197 34.9909 23.6067 34.9909ZM25.4822 35.3105V32.5833H25.887V33.0094H25.9225C25.9793 32.8638 26.0711 32.7508 26.1977 32.6703C26.3244 32.5886 26.4765 32.5478 26.654 32.5478C26.834 32.5478 26.9837 32.5886 27.1032 32.6703C27.224 32.7508 27.3181 32.8638 27.3856 33.0094H27.414C27.4838 32.8685 27.5886 32.7567 27.7282 32.6738C27.8679 32.5898 28.0354 32.5478 28.2307 32.5478C28.4746 32.5478 28.674 32.6241 28.8291 32.7768C28.9842 32.9283 29.0617 33.1645 29.0617 33.4853V35.3105H28.6427V33.4853C28.6427 33.284 28.5876 33.1402 28.4775 33.0538C28.3675 32.9674 28.2378 32.9242 28.0887 32.9242C27.8969 32.9242 27.7484 32.9822 27.643 33.0982C27.5377 33.213 27.485 33.3586 27.485 33.535V35.3105H27.0589V33.4426C27.0589 33.2876 27.0086 33.1627 26.9079 33.068C26.8073 32.9721 26.6777 32.9242 26.5191 32.9242C26.4102 32.9242 26.3084 32.9532 26.2137 33.0112C26.1202 33.0692 26.0444 33.1497 25.9864 33.2527C25.9296 33.3545 25.9012 33.4722 25.9012 33.606V35.3105H25.4822ZM30.9713 35.3674C30.7085 35.3674 30.4819 35.3094 30.2913 35.1934C30.1019 35.0762 29.9557 34.9128 29.8527 34.7033C29.7509 34.4926 29.7 34.2476 29.7 33.9682C29.7 33.6889 29.7509 33.4426 29.8527 33.2296C29.9557 33.0153 30.0989 32.8484 30.2824 32.7289C30.4671 32.6081 30.6825 32.5478 30.9287 32.5478C31.0708 32.5478 31.211 32.5714 31.3495 32.6188C31.488 32.6661 31.6141 32.7431 31.7277 32.8496C31.8414 32.955 31.9319 33.0946 31.9994 33.2686C32.0669 33.4426 32.1006 33.6569 32.1006 33.9114V34.089H29.9983V33.7267H31.6744C31.6744 33.5729 31.6437 33.4355 31.5821 33.3148C31.5218 33.1941 31.4353 33.0988 31.3229 33.0289C31.2116 32.9591 31.0802 32.9242 30.9287 32.9242C30.7618 32.9242 30.6174 32.9656 30.4955 33.0485C30.3747 33.1301 30.2818 33.2367 30.2167 33.3681C30.1516 33.4995 30.1191 33.6403 30.1191 33.7907V34.0321C30.1191 34.2381 30.1546 34.4127 30.2256 34.5559C30.2978 34.698 30.3978 34.8063 30.5257 34.8809C30.6535 34.9542 30.8021 34.9909 30.9713 34.9909C31.0814 34.9909 31.1808 34.9756 31.2696 34.9448C31.3596 34.9128 31.4371 34.8655 31.5022 34.8027C31.5673 34.7388 31.6176 34.6595 31.6531 34.5648L32.058 34.6784C32.0154 34.8158 31.9437 34.9365 31.8431 35.0407C31.7425 35.1436 31.6182 35.2241 31.4703 35.2821C31.3223 35.339 31.156 35.3674 30.9713 35.3674ZM32.738 35.3105V32.5833H33.1428V32.9952H33.1713C33.221 32.8603 33.3109 32.7508 33.4411 32.6667C33.5713 32.5827 33.7181 32.5407 33.8815 32.5407C33.9123 32.5407 33.9507 32.5413 33.9969 32.5424C34.0431 32.5436 34.078 32.5454 34.1017 32.5478V32.9739C34.0874 32.9703 34.0549 32.965 34.004 32.9579C33.9543 32.9496 33.9016 32.9455 33.846 32.9455C33.7134 32.9455 33.595 32.9733 33.4909 33.0289C33.3879 33.0834 33.3062 33.1592 33.2458 33.2562C33.1866 33.3521 33.157 33.4616 33.157 33.5847V35.3105H32.738ZM36.0614 35.3105V31.6742H37.2901C37.5742 31.6742 37.8074 31.7227 37.9897 31.8198C38.172 31.9157 38.3069 32.0476 38.3945 32.2157C38.4821 32.3838 38.5259 32.575 38.5259 32.7892C38.5259 33.0035 38.4821 33.1935 38.3945 33.3592C38.3069 33.5249 38.1726 33.6551 37.9915 33.7498C37.8104 33.8433 37.579 33.8901 37.2972 33.8901H36.3029V33.4924H37.283C37.4772 33.4924 37.6334 33.464 37.7518 33.4071C37.8713 33.3503 37.9577 33.2698 38.011 33.1657C38.0655 33.0603 38.0927 32.9348 38.0927 32.7892C38.0927 32.6436 38.0655 32.5164 38.011 32.4075C37.9566 32.2986 37.8696 32.2145 37.75 32.1554C37.6304 32.095 37.4724 32.0648 37.2759 32.0648H36.5018V35.3105H36.0614ZM37.7731 33.677L38.668 35.3105H38.1566L37.2759 33.677H37.7731ZM40.317 35.3674C40.0542 35.3674 39.8276 35.3094 39.637 35.1934C39.4476 35.0762 39.3014 34.9128 39.1984 34.7033C39.0966 34.4926 39.0457 34.2476 39.0457 33.9682C39.0457 33.6889 39.0966 33.4426 39.1984 33.2296C39.3014 33.0153 39.4446 32.8484 39.6281 32.7289C39.8128 32.6081 40.0282 32.5478 40.2744 32.5478C40.4165 32.5478 40.5567 32.5714 40.6952 32.6188C40.8337 32.6661 40.9598 32.7431 41.0734 32.8496C41.1871 32.955 41.2776 33.0946 41.3451 33.2686C41.4126 33.4426 41.4463 33.6569 41.4463 33.9114V34.089H39.344V33.7267H41.0202C41.0202 33.5729 40.9894 33.4355 40.9278 33.3148C40.8675 33.1941 40.781 33.0988 40.6686 33.0289C40.5573 32.9591 40.4259 32.9242 40.2744 32.9242C40.1075 32.9242 39.9631 32.9656 39.8412 33.0485C39.7204 33.1301 39.6275 33.2367 39.5624 33.3681C39.4973 33.4995 39.4648 33.6403 39.4648 33.7907V34.0321C39.4648 34.2381 39.5003 34.4127 39.5713 34.5559C39.6435 34.698 39.7435 34.8063 39.8714 34.8809C39.9992 34.9542 40.1478 34.9909 40.317 34.9909C40.4271 34.9909 40.5265 34.9756 40.6153 34.9448C40.7053 34.9128 40.7828 34.8655 40.8479 34.8027C40.913 34.7388 40.9633 34.6595 40.9988 34.5648L41.4037 34.6784C41.3611 34.8158 41.2894 34.9365 41.1888 35.0407C41.0882 35.1436 40.9639 35.2241 40.816 35.2821C40.668 35.339 40.5017 35.3674 40.317 35.3674ZM44.2308 32.5833L43.2223 35.3105H42.7962L41.7876 32.5833H42.2422L42.995 34.7566H43.0234L43.7763 32.5833H44.2308ZM44.7839 35.3105V32.5833H45.2029V35.3105H44.7839ZM44.997 32.1287C44.9153 32.1287 44.8449 32.1009 44.7857 32.0453C44.7277 31.9896 44.6987 31.9228 44.6987 31.8446C44.6987 31.7665 44.7277 31.6996 44.7857 31.644C44.8449 31.5884 44.9153 31.5605 44.997 31.5605C45.0787 31.5605 45.1485 31.5884 45.2065 31.644C45.2657 31.6996 45.2953 31.7665 45.2953 31.8446C45.2953 31.9228 45.2657 31.9896 45.2065 32.0453C45.1485 32.1009 45.0787 32.1287 44.997 32.1287ZM47.1139 35.3674C46.8511 35.3674 46.6244 35.3094 46.4339 35.1934C46.2445 35.0762 46.0983 34.9128 45.9953 34.7033C45.8935 34.4926 45.8426 34.2476 45.8426 33.9682C45.8426 33.6889 45.8935 33.4426 45.9953 33.2296C46.0983 33.0153 46.2415 32.8484 46.425 32.7289C46.6096 32.6081 46.8251 32.5478 47.0713 32.5478C47.2133 32.5478 47.3536 32.5714 47.4921 32.6188C47.6306 32.6661 47.7567 32.7431 47.8703 32.8496C47.9839 32.955 48.0745 33.0946 48.142 33.2686C48.2094 33.4426 48.2432 33.6569 48.2432 33.9114V34.089H46.1409V33.7267H47.817C47.817 33.5729 47.7863 33.4355 47.7247 33.3148C47.6643 33.1941 47.5779 33.0988 47.4655 33.0289C47.3542 32.9591 47.2228 32.9242 47.0713 32.9242C46.9044 32.9242 46.76 32.9656 46.6381 33.0485C46.5173 33.1301 46.4244 33.2367 46.3593 33.3681C46.2942 33.4995 46.2616 33.6403 46.2616 33.7907V34.0321C46.2616 34.2381 46.2971 34.4127 46.3682 34.5559C46.4404 34.698 46.5404 34.8063 46.6682 34.8809C46.7961 34.9542 46.9446 34.9909 47.1139 34.9909C47.224 34.9909 47.3234 34.9756 47.4122 34.9448C47.5022 34.9128 47.5797 34.8655 47.6448 34.8027C47.7099 34.7388 47.7602 34.6595 47.7957 34.5648L48.2006 34.6784C48.1579 34.8158 48.0863 34.9365 47.9857 35.0407C47.8851 35.1436 47.7608 35.2241 47.6128 35.2821C47.4649 35.339 47.2986 35.3674 47.1139 35.3674ZM49.4985 35.3105L48.6675 32.5833H49.1079L49.6974 34.6713H49.7258L50.3081 32.5833H50.7556L51.3309 34.6642H51.3593L51.9488 32.5833H52.3891L51.5581 35.3105H51.1462L50.5496 33.2154H50.507L49.9104 35.3105H49.4985ZM54.8749 33.1941L54.4985 33.3006C54.4748 33.2379 54.4399 33.1769 54.3937 33.1177C54.3488 33.0574 54.2872 33.0076 54.2091 32.9686C54.1309 32.9295 54.0309 32.91 53.909 32.91C53.7421 32.91 53.603 32.9484 53.4917 33.0254C53.3817 33.1011 53.3266 33.1976 53.3266 33.3148C53.3266 33.419 53.3645 33.5012 53.4403 33.5616C53.516 33.622 53.6344 33.6723 53.7954 33.7125L54.2002 33.812C54.444 33.8712 54.6257 33.9617 54.7453 34.0836C54.8648 34.2044 54.9246 34.36 54.9246 34.5506C54.9246 34.7069 54.8796 34.8465 54.7897 34.9696C54.7009 35.0927 54.5766 35.1898 54.4168 35.2608C54.257 35.3319 54.0712 35.3674 53.8593 35.3674C53.5811 35.3674 53.3509 35.307 53.1686 35.1863C52.9863 35.0655 52.8709 34.8891 52.8224 34.6571L53.2201 34.5577C53.258 34.7045 53.3296 34.8146 53.4349 34.888C53.5415 34.9614 53.6805 34.998 53.8522 34.998C54.0475 34.998 54.2026 34.9566 54.3174 34.8738C54.4334 34.7897 54.4914 34.6891 54.4914 34.5719C54.4914 34.4772 54.4582 34.3979 54.392 34.334C54.3257 34.2689 54.2239 34.2203 54.0866 34.1884L53.632 34.0819C53.3823 34.0227 53.1988 33.9309 53.0816 33.8066C52.9656 33.6812 52.9076 33.5243 52.9076 33.3361C52.9076 33.1822 52.9508 33.0461 53.0372 32.9277C53.1248 32.8094 53.2438 32.7164 53.3941 32.649C53.5456 32.5815 53.7172 32.5478 53.909 32.5478C54.1789 32.5478 54.3908 32.6069 54.5447 32.7253C54.6997 32.8437 54.8098 32.9999 54.8749 33.1941Z" fill="#6D6E71"/>
</svg>
