<svg width="181" height="38" viewBox="0 0 181 38" fill="none" xmlns="http://www.w3.org/2000/svg">
<g clip-path="url(#clip0_3693_13576)">
<path d="M93.7192 3.3841H113.898V8.97988H101.214V12.2017H112.067V17.5601H101.214V21.121H114.135V26.7168H93.7192V3.3841Z" fill="#FBB723"/>
<path d="M115.729 3.3841H123.224V20.748H135.196V26.7168H115.729V3.3841Z" fill="#FBB723"/>
<path d="M145.98 3.3841C154.119 3.3841 158.223 7.28419 158.223 15.0504C158.223 22.8506 154.153 26.7168 145.98 26.7168H135.874V3.3841H145.98ZM143.368 21.121H145.844C148.998 21.121 150.558 19.4253 150.558 16.0679V14.033C150.558 10.6417 148.998 8.97988 145.844 8.97988H143.368V21.121Z" fill="#FBB723"/>
<path d="M173.213 9.35293V26.7168H165.718V9.35293H158.053V3.3841H180.843V9.35293H173.213Z" fill="#FBB723"/>
<path d="M21.9481 17.7828C21.9481 20.8037 20.984 23.1177 19.0878 24.6924C16.7418 26.4172 13.8626 27.2594 10.9569 27.0707C8.04193 27.2532 5.15469 26.4121 2.79388 24.6924C0.865596 23.0855 -0.0664062 20.8037 -0.0664062 17.7828V4.57405H7.03609V17.6864C7.03609 18.9397 7.35747 19.936 8.03237 20.6752C8.67513 21.4144 9.63927 21.7679 10.9248 21.7679C12.2103 21.7679 13.1745 21.3822 13.8172 20.6431C14.5273 19.8263 14.8956 18.7675 14.8456 17.6864V4.57405H21.9481V17.7828Z" fill="#2D2727"/>
<path d="M34.7075 9.33102C36.6679 9.33102 38.1463 9.87737 39.1426 10.9701C40.1067 12.0628 40.6209 13.6375 40.6209 15.6943V26.6855H34.2254V16.4657C34.2254 15.7265 34.0326 15.1801 33.647 14.7302C33.2934 14.2803 32.7471 14.0553 32.0722 14.0553C31.7148 14.0427 31.3587 14.1048 31.0267 14.2376C30.6947 14.3704 30.394 14.571 30.1439 14.8266C29.9012 15.0779 29.7108 15.3749 29.5839 15.7005C29.457 16.026 29.3961 16.3735 29.4047 16.7228V26.6855H23.0093V9.71668H28.2478L28.6656 12.2877C29.384 11.3706 30.3008 10.6281 31.3472 10.116C32.3937 9.60394 33.5425 9.33556 34.7075 9.33102Z" fill="#2D2727"/>
<path d="M41.4233 7.72412V3.38549H47.8188V7.72412H41.4233ZM41.4233 26.6855V9.71668H47.8188V26.6855H41.4233Z" fill="#2D2727"/>
<path d="M59.9679 9.71662V14.0552H56.3684V20.515C56.3684 21.2863 56.497 21.8648 56.7541 22.2183C57.0112 22.5397 57.4932 22.7325 58.1681 22.7325H59.9679V26.4927C58.6599 27.2407 57.1641 27.5961 55.6594 27.5163C54.1548 27.4365 52.7049 26.9249 51.4834 26.0427C50.4871 25.3678 49.9729 24.1787 49.9729 22.5397V14.0552H47.5947V9.71662H50.23L51.612 4.57454H56.3684V9.71662H59.9679Z" fill="#2D2727"/>
<path d="M68.4517 9.3304C71.5691 9.3304 73.9152 10.0696 75.5542 11.5158C77.1933 12.962 78.0289 15.2117 78.0289 18.2005V19.2932H65.3022C65.3022 20.5144 65.5593 21.4464 66.1057 22.057C66.652 22.6998 67.5197 22.9891 68.7088 22.9891C69.7694 22.9891 70.5728 22.7641 71.0549 22.3142C71.3108 22.0917 71.5131 21.8143 71.6466 21.5026C71.7802 21.191 71.8416 20.8531 71.8262 20.5144H78.0289C78.067 21.4493 77.8727 22.3791 77.4632 23.2204C77.0538 24.0617 76.442 24.7883 75.6828 25.3351C73.6419 26.623 71.2453 27.2306 68.8374 27.0706C66.213 27.234 63.616 26.4595 61.5099 24.8852C59.7745 23.4068 58.9067 21.1893 58.9067 18.2005C58.9067 15.3081 59.7423 13.0584 61.4456 11.5801C63.149 10.0696 65.4629 9.3304 68.4517 9.3304ZM68.7088 13.4119C66.6841 13.4119 65.5593 14.3761 65.3343 16.2722H71.5691C71.5886 15.8899 71.5303 15.5077 71.3977 15.1486C71.2651 14.7895 71.061 14.4611 70.7978 14.1832C70.5221 13.9168 70.1941 13.7107 69.8344 13.5779C69.4748 13.4451 69.0915 13.3886 68.7088 13.4119Z" fill="#2D2727"/>
<path d="M90.2095 26.6853L89.6631 24.2749C89.0858 25.172 88.2836 25.9022 87.3363 26.3927C86.389 26.8833 85.3297 27.1171 84.2639 27.0709C83.2665 27.1293 82.2691 26.9567 81.3494 26.5665C80.4296 26.1763 79.6123 25.579 78.9612 24.8213C77.7078 23.3108 77.0972 21.0933 77.0972 18.1687C77.0972 15.2763 77.7399 13.0588 78.9612 11.5804C80.2146 10.0699 81.9821 9.33077 84.2639 9.33077C86.1922 9.33077 87.7991 9.97353 89.0204 11.2912V3.38524H95.4158V26.6853H90.2095ZM86.2565 14.0551C84.4246 14.0551 83.4926 15.1477 83.4926 17.3653V19.0686C83.4926 21.254 84.4246 22.3467 86.2565 22.3467C87.2206 22.3467 87.8955 22.0253 88.3776 21.3504C88.8597 20.7076 89.0846 19.8078 89.0846 18.7472V17.6867C89.0846 16.6261 88.8597 15.7584 88.3776 15.0835C87.8955 14.4086 87.1885 14.0551 86.2565 14.0551Z" fill="#2D2727"/>
<path d="M2.66729 37.034C2.34934 37.0445 2.03317 36.9826 1.74261 36.8531C1.45205 36.7235 1.19469 36.5297 0.989915 36.2863C0.528127 35.6753 0.302108 34.9183 0.353319 34.1542C0.353319 33.2347 0.565518 32.5172 0.989915 32.0221C1.42442 31.5169 1.98017 31.2744 2.6774 31.2744C2.99198 31.267 3.3042 31.3304 3.59101 31.4598C3.87783 31.5892 4.13193 31.7814 4.33457 32.0221C4.79843 32.6286 5.02804 33.382 4.98127 34.1441C5.03301 34.913 4.80313 35.6744 4.33457 36.2863C4.13086 36.5284 3.87513 36.7213 3.58644 36.8508C3.29775 36.9803 2.98356 37.0429 2.66729 37.034ZM2.66729 36.4884C3.15232 36.4884 3.5363 36.2863 3.81923 35.8518C4.1193 35.3382 4.26326 34.7483 4.23352 34.1542C4.23352 33.4469 4.09205 32.881 3.81923 32.4566C3.70224 32.256 3.53378 32.0902 3.33125 31.9765C3.12873 31.8628 2.8995 31.8053 2.66729 31.8099C2.43358 31.8045 2.20266 31.8617 1.99839 31.9753C1.79411 32.089 1.62388 32.2552 1.50525 32.4566C1.20166 32.9691 1.05417 33.5591 1.08086 34.1542C1.08086 34.8615 1.22232 35.4173 1.50525 35.8518C1.62516 36.0513 1.79595 36.2155 2.00013 36.3273C2.20432 36.4392 2.43456 36.4948 2.66729 36.4884Z" fill="#2D2727"/>
<path d="M10.6653 36.8711H10.0186V31.4348H10.7259L13.1914 35.2948L13.4339 35.7293L13.4137 35.3049V31.4348H14.0705V36.8711H13.3834L10.8876 32.9909L10.6551 32.5564L10.6653 32.9909V36.8711Z" fill="#2D2727"/>
<path d="M19.3042 36.8711V31.4348H20.0115V36.2648H22.8712V36.8711H19.3042Z" fill="#2D2727"/>
<path d="M28.3987 36.8711H27.6914V31.4348H28.3987V36.8711Z" fill="#2D2727"/>
<path d="M34.28 36.8711H33.6333V31.4348H34.3406L36.8062 35.2948L37.0487 35.7293L37.0285 35.3049V31.4348H37.6853V36.8711H36.9982L34.5023 32.9909L34.2699 32.5564L34.28 32.9909V36.8711Z" fill="#2D2727"/>
<path d="M42.9194 36.8711V31.4348H45.9913V32.0208H43.6268V33.7386H45.6881V34.2944H43.6268V36.2648H46.1832V36.8711H42.9194Z" fill="#2D2727"/>
<path d="M60.2686 36.8711V31.9804H58.4194V31.4348H62.7948V31.9804H60.9759V36.8711H60.2686Z" fill="#2D2727"/>
<path d="M68.3328 36.8711H67.6255V31.4348H69.313C69.6323 31.4137 69.9519 31.4727 70.2426 31.6066C70.4549 31.7303 70.6268 31.9127 70.7377 32.132C70.8464 32.3377 70.9081 32.5648 70.9186 32.7972C70.9291 33.0295 70.888 33.2613 70.7984 33.4759C70.7096 33.6715 70.5864 33.8495 70.4346 34.0014C70.2421 34.19 70.0112 34.3347 69.7576 34.4258C69.8526 34.4749 69.9408 34.5361 70.0203 34.6076C70.1826 34.8109 70.328 35.0272 70.4548 35.2543L71.3238 36.8711H70.5154L69.7475 35.4362C69.5669 35.0939 69.3275 34.786 69.0401 34.5268H68.3328V36.8711ZM68.3328 33.9913H69.0199C69.3029 33.9913 69.5252 33.9407 69.6767 33.8599C69.8374 33.7682 69.9675 33.6311 70.0506 33.4658C70.1384 33.2938 70.1835 33.1032 70.182 32.9101C70.1861 32.7525 70.1514 32.5963 70.0809 32.4553C70.0078 32.3185 69.8997 32.2034 69.7677 32.1219C69.6363 32.0208 69.4039 31.9804 69.0806 31.9804H68.3328V33.9913Z" fill="#2D2727"/>
<path d="M76.4263 36.8711H75.7695L77.9926 31.4348H78.71L80.7714 36.8711H80.0034L79.4375 35.3756H77.0427L76.4263 36.8711ZM77.2549 34.8299H79.2253L78.2755 32.3038L77.2549 34.8299Z" fill="#2D2727"/>
<path d="M86.2986 36.8711H85.5913V31.4348H86.2986V36.8711Z" fill="#2D2727"/>
<path d="M92.1799 36.8711H91.5332V31.4348H92.2405L94.7061 35.2948L94.9486 35.7293L94.9284 35.3049V31.4348H95.5852V36.8711H94.8981L92.4022 32.9909L92.1698 32.5564L92.1799 32.9909V36.8711Z" fill="#2D2727"/>
<path d="M101.527 36.8711H100.819V31.4348H101.527V36.8711Z" fill="#2D2727"/>
<path d="M107.407 36.8711H106.761V31.4348H107.468L109.934 35.2948L110.176 35.7293L110.156 35.3049V31.4348H110.813V36.8711H110.126L107.63 32.9909L107.397 32.5564L107.407 32.9909V36.8711Z" fill="#2D2727"/>
<path d="M119.934 36.6281C119.422 36.8839 118.859 37.022 118.287 37.0323C117.827 37.0502 117.372 36.9381 116.973 36.709C116.624 36.4786 116.344 36.1571 116.165 35.7793C115.946 35.2872 115.842 34.7515 115.862 34.2131C115.862 33.5058 115.963 32.9399 116.145 32.5458C116.323 32.157 116.611 31.829 116.974 31.6027C117.337 31.3763 117.758 31.2616 118.186 31.2727C118.486 31.2677 118.784 31.3191 119.065 31.4242C119.319 31.5159 119.541 31.6812 119.701 31.8991C119.844 32.0702 119.925 32.2833 119.934 32.5054V32.5661H119.297V32.5256C119.295 32.3924 119.241 32.2653 119.146 32.172C119.043 32.0596 118.915 31.973 118.772 31.9194C118.598 31.851 118.413 31.8167 118.226 31.8183C117.987 31.8081 117.749 31.8605 117.537 31.9704C117.324 32.0803 117.144 32.2438 117.014 32.4448C116.713 32.9653 116.573 33.5627 116.609 34.1626C116.609 34.88 116.741 35.456 117.034 35.8804C117.166 36.0728 117.344 36.2284 117.553 36.3327C117.761 36.437 117.993 36.4865 118.226 36.4766C118.529 36.4766 118.883 36.4058 119.287 36.2644V34.7083H118.065V34.1727H119.934V36.618V36.6281Z" fill="#2D2727"/>
<path d="M135.897 35.6993H136.544V35.7397C136.536 35.9758 136.459 36.2044 136.322 36.3965C136.173 36.6131 135.961 36.7789 135.715 36.8714C135.435 36.9817 135.137 37.0366 134.836 37.0331C134.518 37.0432 134.202 36.9843 133.909 36.8604C133.616 36.7366 133.353 36.5507 133.139 36.3156C132.694 35.8205 132.472 35.1031 132.472 34.1532C132.472 33.1933 132.694 32.4759 133.128 31.9807C133.563 31.5058 134.139 31.2633 134.826 31.2633C135.134 31.2571 135.439 31.3121 135.725 31.425C135.976 31.5243 136.189 31.7014 136.332 31.9302C136.463 32.1172 136.537 32.3385 136.544 32.5668V32.6072H135.907V32.5668C135.903 32.4316 135.857 32.3011 135.776 32.1929C135.69 32.0643 135.567 31.9655 135.422 31.91C135.245 31.8411 135.057 31.8068 134.866 31.8089C134.616 31.7954 134.366 31.8515 134.145 31.971C133.924 32.0904 133.74 32.2686 133.614 32.486C133.324 32.996 133.184 33.5773 133.209 34.1633C133.209 34.8505 133.341 35.4163 133.614 35.8508C133.744 36.0568 133.927 36.2242 134.144 36.3361C134.36 36.448 134.603 36.5002 134.846 36.4874C135.23 36.4874 135.503 36.4268 135.655 36.255C135.728 36.1902 135.788 36.1111 135.829 36.0224C135.871 35.9338 135.894 35.8376 135.897 35.7397V35.6993Z" fill="#2D2727"/>
<path d="M143.657 37.034C143.339 37.0445 143.023 36.9826 142.732 36.8531C142.442 36.7235 142.184 36.5297 141.98 36.2863C141.518 35.6753 141.292 34.9183 141.343 34.1542C141.343 33.2347 141.555 32.5172 141.98 32.0221C142.414 31.5169 142.97 31.2744 143.667 31.2744C143.982 31.267 144.294 31.3304 144.581 31.4598C144.868 31.5892 145.122 31.7814 145.324 32.0221C145.788 32.6286 146.018 33.382 145.971 34.1441C146.023 34.913 145.793 35.6744 145.324 36.2863C145.121 36.5284 144.865 36.7213 144.576 36.8508C144.287 36.9803 143.973 37.0429 143.657 37.034ZM143.657 36.4884C144.142 36.4884 144.526 36.2863 144.809 35.8518C145.109 35.3382 145.253 34.7483 145.223 34.1542C145.223 33.4469 145.082 32.881 144.809 32.4566C144.692 32.256 144.524 32.0902 144.321 31.9765C144.118 31.8628 143.889 31.8053 143.657 31.8099C143.423 31.8045 143.192 31.8617 142.988 31.9753C142.784 32.089 142.614 32.2552 142.495 32.4566C142.191 32.9691 142.044 33.5591 142.071 34.1542C142.071 34.8615 142.212 35.4173 142.495 35.8518C142.615 36.0513 142.786 36.2155 142.99 36.3273C143.194 36.4392 143.424 36.4948 143.657 36.4884Z" fill="#2D2727"/>
<path d="M150.93 31.4356H151.637V34.9318C151.637 35.437 151.688 35.7806 151.779 35.9524C151.888 36.1357 152.055 36.2778 152.254 36.3566C152.469 36.4491 152.701 36.4969 152.936 36.4969C153.17 36.4969 153.402 36.4491 153.618 36.3566C153.82 36.2555 153.961 36.1141 154.062 35.9221C154.153 35.72 154.204 35.3158 154.204 34.6792V31.4356H154.851V34.8712C154.877 35.3212 154.797 35.7711 154.618 36.1848C154.473 36.4492 154.256 36.6666 153.992 36.8113C153.669 36.9709 153.311 37.0473 152.951 37.0336C152.589 37.0359 152.23 36.9743 151.89 36.8517C151.593 36.7569 151.336 36.5647 151.162 36.306C150.973 35.9028 150.892 35.4567 150.93 35.0126V31.4356Z" fill="#2D2727"/>
<path d="M160.7 36.8711H159.992V31.4348H161.68C161.999 31.4137 162.319 31.4727 162.609 31.6066C162.822 31.7303 162.994 31.9127 163.104 32.132C163.213 32.3377 163.275 32.5648 163.285 32.7972C163.296 33.0295 163.255 33.2613 163.165 33.4759C163.076 33.6715 162.953 33.8495 162.801 34.0014C162.609 34.19 162.378 34.3347 162.124 34.4258C162.219 34.4749 162.308 34.5361 162.387 34.6076C162.549 34.8109 162.695 35.0272 162.821 35.2543L163.691 36.8711H162.882L162.114 35.4362C161.934 35.0939 161.694 34.786 161.407 34.5268H160.7V36.8711ZM160.7 33.9913H161.387C161.67 33.9913 161.892 33.9407 162.043 33.8599C162.204 33.7682 162.334 33.6311 162.417 33.4658C162.505 33.2938 162.55 33.1032 162.549 32.9101C162.553 32.7525 162.518 32.5963 162.448 32.4553C162.374 32.3185 162.266 32.2034 162.134 32.1219C162.003 32.0208 161.771 31.9804 161.447 31.9804H160.7V33.9913Z" fill="#2D2727"/>
<path d="M168.408 35.6487H169.115V35.679C169.115 35.9821 169.216 36.1943 169.438 36.3257C169.703 36.4497 169.995 36.5053 170.287 36.4873C170.59 36.4873 170.853 36.3964 171.055 36.2145C171.267 36.0427 171.368 35.8103 171.368 35.5072C171.372 35.3959 171.351 35.2852 171.305 35.1836C171.26 35.082 171.191 34.9922 171.106 34.9211C170.856 34.7342 170.58 34.5844 170.287 34.4765L170.004 34.3553C169.695 34.2448 169.402 34.0917 169.135 33.9005C168.959 33.7566 168.815 33.5777 168.711 33.3751C168.616 33.1765 168.567 32.9587 168.569 32.7385C168.569 32.3242 168.711 31.9807 169.014 31.6977C169.317 31.4148 169.752 31.2733 170.368 31.2733C170.944 31.2733 171.338 31.3744 171.571 31.5765C171.68 31.6694 171.768 31.7856 171.828 31.9167C171.887 32.0478 171.917 32.1904 171.914 32.3343V32.3646H171.207V32.3242C171.206 32.2274 171.17 32.1341 171.106 32.0615C171.02 31.9659 170.907 31.8989 170.782 31.8695C170.628 31.8275 170.468 31.8071 170.307 31.8089C169.964 31.8089 169.701 31.8998 169.539 32.0817C169.459 32.1609 169.396 32.2553 169.352 32.3594C169.309 32.4635 169.287 32.5752 169.287 32.688C169.297 32.8251 169.342 32.9572 169.418 33.072C169.492 33.2166 169.599 33.3414 169.731 33.4357C169.96 33.5649 170.196 33.6797 170.439 33.7793L170.772 33.9005C171.185 34.0482 171.551 34.3027 171.833 34.6382C172.009 34.8788 172.105 35.1687 172.106 35.4668C172.102 35.7444 172.025 36.016 171.884 36.2549C171.743 36.5029 171.532 36.7034 171.277 36.8309C170.961 36.9751 170.615 37.0442 170.267 37.033C169.921 37.0416 169.575 36.9903 169.246 36.8814C168.989 36.8 168.768 36.6322 168.62 36.4065C168.48 36.1899 168.406 35.937 168.408 35.679V35.6487Z" fill="#2D2727"/>
<path d="M177.089 36.8711V31.4348H180.161V32.0208H177.797V33.7386H179.858V34.2944H177.797V36.2648H180.353V36.8711H177.089Z" fill="#2D2727"/>
<path d="M177.599 1.45434V2.93652H176.959V1.45434H176.305V0.944845H178.25V1.45434H177.599Z" fill="#2D2727"/>
<path d="M180.207 2.93652V2.21859C180.207 2.00739 180.223 1.79647 180.253 1.58751H180.242L179.874 2.93652H179.373L179.003 1.5904H178.991C179.003 1.70923 179.017 1.82793 179.032 1.94647C179.04 2.03911 179.043 2.12885 179.043 2.21859V2.93652H178.456V0.944845H179.359L179.66 2.09411H179.671L179.97 0.944845H180.841V2.93652H180.207Z" fill="#2D2727"/>
</g>
<defs>
<clipPath id="clip0_3693_13576">
<rect width="181" height="36.2" fill="white" transform="translate(0 0.900391)"/>
</clipPath>
</defs>
</svg>
